<svg xmlns="http://www.w3.org/2000/svg" width="50.387" height="50.387" viewBox="0 0 50.387 50.387">
  <g id="_7202881_discount_sale_promotion_deals_icon" data-name="7202881_discount_sale_promotion_deals_icon" transform="translate(-12.728 23.599) rotate(-45)">
    <path id="Path_17" data-name="Path 17" d="M38.007,37.782a.775.775,0,0,1-.55-.232L22.671,22.763a.775.775,0,1,1,1.092-1.092L38.549,36.457a.779.779,0,0,1-.542,1.324Z" transform="translate(-4.149 -1.669)"/>
    <path id="Path_18" data-name="Path 18" d="M41.1,33.2a3.1,3.1,0,1,1,3.1-3.1A3.1,3.1,0,0,1,41.1,33.2Zm0-4.647A1.549,1.549,0,1,0,42.647,30.1,1.549,1.549,0,0,0,41.1,28.549Z" transform="translate(-7.666 -2.931)"/>
    <path id="Path_19" data-name="Path 19" d="M21.1,34.2a3.1,3.1,0,1,1,3.1-3.1A3.1,3.1,0,0,1,21.1,34.2Zm0-4.647A1.549,1.549,0,1,0,22.647,31.1,1.549,1.549,0,0,0,21.1,29.549Z" transform="translate(-3.156 -3.156)"/>
    <path id="Path_20" data-name="Path 20" d="M46.6,41.883H4.775A.775.775,0,0,1,4,41.109V33.363a.775.775,0,0,1,.775-.775,4.647,4.647,0,0,0,0-9.294A.775.775,0,0,1,4,22.52V14.775A.775.775,0,0,1,4.775,14H46.6a.775.775,0,0,1,.775.775V22.52a.775.775,0,0,1-.775.775,4.647,4.647,0,0,0,0,9.294.775.775,0,0,1,.775.775v7.745A.775.775,0,0,1,46.6,41.883ZM5.549,40.334H45.825V34.092a6.2,6.2,0,0,1,0-12.3V15.549H5.549v6.243a6.2,6.2,0,0,1,0,12.3Z" fill="#0d2f3c"/>
  </g>
</svg>
