<svg xmlns="http://www.w3.org/2000/svg" width="41.971" height="41.004" viewBox="0 0 41.971 41.004">
  <g id="_6578968_call_communication_customer_phone_service_icon" data-name="6578968_call_communication_customer_phone_service_icon" transform="translate(-1.213 -2)">
    <g id="Group_17" data-name="Group 17" transform="translate(1.213 18.415)">
      <path id="Path_21" data-name="Path 21" d="M18.667,38.238A7.455,7.455,0,0,1,14.44,36.97,46.1,46.1,0,0,1,2.463,24.993a8.038,8.038,0,0,1,.845-9.722,5.026,5.026,0,0,1,4.509-1.55A7.943,7.943,0,0,1,11.9,15.975a7.943,7.943,0,0,1,2.254,4.086,5.026,5.026,0,0,1-1.55,4.509l-.423.423c.7.845,1.55,1.55,2.4,2.4L15,26.966c2.4-2.4,5.636-2.114,8.454.7s3.1,6.059.7,8.454A8.6,8.6,0,0,1,18.667,38.238Z" transform="translate(-1.213 -13.65)"/>
    </g>
    <path id="Path_22" data-name="Path 22" d="M24.245,13.245V12.4l-.845.845Z" transform="translate(9.076 4.254)"/>
    <path id="Path_23" data-name="Path 23" d="M23.827,2A16.716,16.716,0,0,0,7.2,16.091a11.322,11.322,0,0,1,4.227,2.677,10.888,10.888,0,0,1,3.1,5.5,7.68,7.68,0,0,1-.141,3.1c2.818-.7,6.059.282,8.6,2.959a9.73,9.73,0,0,1,2.959,5.354A16.9,16.9,0,0,0,23.827,2Zm0,21.136H18.191a1.232,1.232,0,0,1-1.268-.845,1.535,1.535,0,0,1,.282-1.55l4.086-4.086a1.191,1.191,0,0,0,.282-.845,1.511,1.511,0,0,0-.282-.845,1.106,1.106,0,0,0-1.55,0l-.564.564A1.395,1.395,0,1,1,17.2,13.554l.564-.564a3.828,3.828,0,0,1,5.5,0,3.934,3.934,0,0,1,1.127,2.818,4.475,4.475,0,0,1-1.127,2.818l-1.691,1.691h2.254a1.409,1.409,0,1,1,0,2.818Zm9.863-1.409a1.409,1.409,0,1,1-2.818,0V20.318H26.645a1.232,1.232,0,0,1-1.268-.845,1.535,1.535,0,0,1,.282-1.55l5.636-5.636A1.286,1.286,0,0,1,32.845,12a1.232,1.232,0,0,1,.845,1.268Z" transform="translate(2.449 0)"/>
  </g>
</svg>
