<svg xmlns="http://www.w3.org/2000/svg" width="32.459" height="31.684" viewBox="0 0 32.459 31.684">
  <path id="Path_29" data-name="Path 29" d="M106.4,99.162a1.47,1.47,0,0,0,.394-.209l.608-.453a1.477,1.477,0,0,0,.534-1.589l-.18-.62a1.471,1.471,0,0,0-1.154-1.037c-.031-.006-.063-.008-.094-.011s-.055-.008-.083-.009c-.044,0-.088,0-.132,0h-.044a1.471,1.471,0,0,0-.157.02l-.016,0a1.468,1.468,0,0,0-.637.289l-.225-.848-1.132-4.262.527-.5.014-.014c.451-.452,4.4-4.492,4.279-7.119a2.067,2.067,0,0,0-.738-1.537c-2.534-2.115-7.312,2.677-7.89,3.275l-1.548,1.489L93.407,84.44a1.3,1.3,0,0,0,.1-.122v0a1.276,1.276,0,0,0,.082-.128l0-.008a1.289,1.289,0,0,0,.062-.129l.008-.02a1.266,1.266,0,0,0,.042-.124c0-.012.006-.025.009-.038.009-.037.018-.075.023-.113,0-.02,0-.04.006-.059s.007-.064.008-.1,0-.059,0-.088,0-.048,0-.073a1.315,1.315,0,0,0-.026-.164,1.286,1.286,0,0,0-.87-.95l-.919-.295a1.3,1.3,0,0,0-1.3.309l-.689.675h0a1.307,1.307,0,0,0-.236.316l-5.976-1.789a.61.61,0,0,0-.552.105L80.656,83.63a.61.61,0,0,0,.084,1.014l5.32,2.913,2.161,1.183h0l1.2.658,3.7,2.026-5.212,5.013-9.934-.22-.548-.012h-.014l-.031,0a.591.591,0,0,0-.122.018h0a.591.591,0,0,0-.108.04l-.009,0a.609.609,0,0,0-.1.06l-.006,0a.608.608,0,0,0-.088.084h0l-.011.015a.61.61,0,0,0-.05.07c-.009.015-.015.032-.023.048h0c-.007.016-.016.031-.023.047h0a.608.608,0,0,0-.029.105l-.356,1.947a.61.61,0,0,0,.392.683l4.75,1.72h0l4.28,1.55,1.949,9a.61.61,0,0,0,.487.471l1.808.331a.625.625,0,0,0,.11.01.61.61,0,0,0,.606-.535L92.1,101.7l6.352-5.972,6.45,12.712a.61.61,0,0,0,.474.33.625.625,0,0,0,.07,0,.611.611,0,0,0,.467-.218l2.061-2.455a.61.61,0,0,0,.122-.549ZM87.337,84.746l-1.5,1.3-3.7-2.024L83.68,82.8l4.388,1.314Zm18.851,11.763a.279.279,0,0,1,.034-.024.236.236,0,0,1,.128-.034l.027,0a.259.259,0,0,1,.044.01.248.248,0,0,1,.133.1.255.255,0,0,1,.033.072l.18.62a.251.251,0,0,1-.091.27l-.592.441-.2-.736-.1-.387Zm-14.706-13.3a.077.077,0,0,1,.078-.018l.919.295a.078.078,0,0,1,.029.131l-.446.419-1.09-.326Zm.434,6.161L89.6,88.105l2.064-1.686,1.1-.9L97.721,87l-3.674,3.534Zm-.809,11.591a.61.61,0,0,0-.188.37l-.552,4.454-.938.2-1.5.324L87,102.019a.61.61,0,0,0-.388-.444L82.6,100.12l.959-2.557,4.582.1a.608.608,0,0,0,.436-.17l8.185-7.872,2.559-2.461h0l1.812-1.743.016-.016c1.465-1.518,4.917-4.3,6.238-3.194a.844.844,0,0,1,.3.656c.038.836-.628,2.2-1.876,3.835a27,27,0,0,1-2.042,2.361l-.706.664h0a.606.606,0,0,0-.09.071l-.372.363Zm10.147-2.414-1.823-3.592,3.647-3.561,1.23,4.632L103.014,97.1Zm4.322,8.517-2.292-4.517,2.231-1.978,1.325,4.99Z" transform="translate(-76.45 -80.733)"/>
</svg>
