<svg xmlns="http://www.w3.org/2000/svg" width="16.625" height="19" viewBox="0 0 16.625 19">
  <path id="Icon_awesome-calendar-alt" data-name="Icon awesome-calendar-alt" d="M0,17.219A1.782,1.782,0,0,0,1.781,19H14.844a1.782,1.782,0,0,0,1.781-1.781V7.125H0ZM11.875,9.945A.447.447,0,0,1,12.32,9.5H13.8a.447.447,0,0,1,.445.445V11.43a.447.447,0,0,1-.445.445H12.32a.447.447,0,0,1-.445-.445Zm0,4.75a.447.447,0,0,1,.445-.445H13.8a.447.447,0,0,1,.445.445V16.18a.447.447,0,0,1-.445.445H12.32a.447.447,0,0,1-.445-.445Zm-4.75-4.75A.447.447,0,0,1,7.57,9.5H9.055a.447.447,0,0,1,.445.445V11.43a.447.447,0,0,1-.445.445H7.57a.447.447,0,0,1-.445-.445Zm0,4.75a.447.447,0,0,1,.445-.445H9.055A.447.447,0,0,1,9.5,14.7V16.18a.447.447,0,0,1-.445.445H7.57a.447.447,0,0,1-.445-.445Zm-4.75-4.75A.447.447,0,0,1,2.82,9.5H4.3a.447.447,0,0,1,.445.445V11.43a.447.447,0,0,1-.445.445H2.82a.447.447,0,0,1-.445-.445Zm0,4.75a.447.447,0,0,1,.445-.445H4.3a.447.447,0,0,1,.445.445V16.18a.447.447,0,0,1-.445.445H2.82a.447.447,0,0,1-.445-.445ZM14.844,2.375H13.063V.594A.6.6,0,0,0,12.469,0H11.281a.6.6,0,0,0-.594.594V2.375H5.938V.594A.6.6,0,0,0,5.344,0H4.156a.6.6,0,0,0-.594.594V2.375H1.781A1.782,1.782,0,0,0,0,4.156V5.938H16.625V4.156A1.782,1.782,0,0,0,14.844,2.375Z"/>
</svg>
