<svg xmlns="http://www.w3.org/2000/svg" width="39.877" height="24" viewBox="0 0 39.877 24">
  <g id="Group_4" data-name="Group 4" transform="translate(-1662.056 -47)">
    <path id="_211846_world_icon" data-name="211846_world_icon" d="M60,48h-.029a12,12,0,0,0,0,24H60a12,12,0,0,0,0-24Zm.479,7.183a17.79,17.79,0,0,0,3.7-.49,21.532,21.532,0,0,1,.617,4.835H60.479Zm0-.963V49.038c1.292.358,2.608,2.083,3.438,4.731A16.846,16.846,0,0,1,60.479,54.219Zm-.958-5.192v5.2a16.682,16.682,0,0,1-3.467-.462C56.9,51.1,58.217,49.362,59.521,49.027Zm0,6.156v4.338h-4.35a21.532,21.532,0,0,1,.617-4.835A18.068,18.068,0,0,0,59.521,55.183ZM54.2,59.521H48.975A10.969,10.969,0,0,1,51.473,53a17.445,17.445,0,0,0,3.392,1.431A22.634,22.634,0,0,0,54.2,59.521Zm0,.958a22.361,22.361,0,0,0,.658,5.088A17.966,17.966,0,0,0,51.467,67a11.006,11.006,0,0,1-2.5-6.519Zm.969,0h4.35v4.333a17.687,17.687,0,0,0-3.733.5A21.532,21.532,0,0,1,55.171,60.479Zm4.35,5.3v5.2c-1.3-.34-2.625-2.071-3.467-4.737A16.306,16.306,0,0,1,59.521,65.775Zm.958,5.187V65.769a16.959,16.959,0,0,1,3.444.456C63.087,68.879,61.777,70.6,60.479,70.962Zm0-6.15V60.479H64.8a21.523,21.523,0,0,1-.617,4.829A17.792,17.792,0,0,0,60.479,64.812Zm5.285-4.333h5.262A10.983,10.983,0,0,1,68.527,67a17.74,17.74,0,0,0-3.421-1.442A22.257,22.257,0,0,0,65.763,60.479Zm0-.958a22.646,22.646,0,0,0-.652-5.083A17.88,17.88,0,0,0,68.527,53a10.971,10.971,0,0,1,2.5,6.525H65.763Zm2.106-7.258a16.685,16.685,0,0,1-3.017,1.246,10.793,10.793,0,0,0-2.279-4.246A11.1,11.1,0,0,1,67.869,52.263ZM57.392,49.275A10.672,10.672,0,0,0,55.125,53.5a16.39,16.39,0,0,1-2.988-1.24A10.97,10.97,0,0,1,57.392,49.275ZM52.131,67.731a16.561,16.561,0,0,1,2.988-1.24,10.776,10.776,0,0,0,2.273,4.235A10.977,10.977,0,0,1,52.131,67.731Zm10.442,3.006a10.782,10.782,0,0,0,2.285-4.252,16.685,16.685,0,0,1,3.017,1.246A11.077,11.077,0,0,1,62.573,70.737Z" transform="translate(1614.056 -1)" fill="#fff"/>
    <g id="Arrow_45" data-name="Arrow 45" transform="translate(1692 57)">
      <path id="Path_14" data-name="Path 14" d="M1718.475,31.525l-4.907,4.962-4.671-4.962" transform="translate(-1708.897 -31.525)" fill="none" stroke="#fff" stroke-width="1"/>
    </g>
  </g>
</svg>
