<svg xmlns="http://www.w3.org/2000/svg" width="214.168" height="33" viewBox="0 0 214.168 33">
  <g id="Group_2" data-name="Group 2" transform="translate(-124.932 -216)">
    <g id="Group_1" data-name="Group 1" transform="translate(5 149.118)">
      <path id="Path_1" data-name="Path 1" d="M-1848.271,69.882l1.336,23.164-9.578-2.227-3.786,4.009-4.455-8.018-9.132-2.45Z" transform="translate(1996 -2)" fill="none" stroke="#fff" stroke-width="1"/>
      <path id="Path_2" data-name="Path 2" d="M-1865.2,86.809l17.15-16.482-12.473,16.482,4.455,3.118-4.455,4.455" transform="translate(1996 -2)" fill="none" stroke="#fff" stroke-width="1"/>
      <path id="Path_4" data-name="Path 4" d="M-1867.871,89.036l-5.123,6.014" transform="translate(1996 -2)" fill="none" stroke="#fff" stroke-width="1"/>
      <path id="Path_7" data-name="Path 7" d="M-1867.871,89.036l-5.123,6.014" transform="translate(1997 3.002)" fill="none" stroke="#fff" stroke-width="1"/>
      <path id="Path_9" data-name="Path 9" d="M-1867.871,89.036l-5.123,6.014" transform="translate(2008.584 4.014)" fill="none" stroke="#fff" stroke-width="1"/>
      <path id="Path_8" data-name="Path 8" d="M-1871.191,89.036l-1.8,2.116" transform="translate(1993.307 5.461)" fill="none" stroke="#fff" stroke-width="1"/>
      <path id="Path_10" data-name="Path 10" d="M135.591,83.858v7.2" transform="translate(0 0.977)" fill="none" stroke="#fff" stroke-width="1"/>
    </g>
    <text id="MarketPlace" transform="translate(170.1 242)" fill="#fff" font-size="28" font-family="Raleway-Black, Raleway" font-weight="800"><tspan x="0" y="0">Market</tspan><tspan y="0" font-family="Raleway-Regular, Raleway" font-weight="400">Place</tspan></text>
  </g>
</svg>
