<svg xmlns="http://www.w3.org/2000/svg" width="73.118" height="67.054" viewBox="0 0 73.118 67.054">
  <g id="delivery" transform="translate(0)">
    <path id="Path_94" data-name="Path 94" d="M378.952,81.32a1.071,1.071,0,0,0,1.071-1.071v-1.44a1.071,1.071,0,1,0-2.142,0v1.44A1.071,1.071,0,0,0,378.952,81.32Z" transform="translate(-323.916 -69.668)" fill="#0e3746"/>
    <path id="Path_95" data-name="Path 95" d="M460.551,169.418a1.071,1.071,0,0,0,0,2.142h1.44a1.071,1.071,0,1,0,0-2.142Z" transform="translate(-393.862 -148.256)" fill="#0e3746"/>
    <path id="Path_96" data-name="Path 96" d="M287.272,169.418a1.071,1.071,0,0,0,0,2.142h1.44a1.071,1.071,0,0,0,0-2.142Z" transform="translate(-245.329 -148.256)" fill="#0e3746"/>
    <path id="Path_97" data-name="Path 97" d="M397.568,408.987a3.45,3.45,0,1,0,3.45,3.45A3.454,3.454,0,0,0,397.568,408.987Zm0,4.757a1.308,1.308,0,1,1,1.307-1.308A1.309,1.309,0,0,1,397.568,413.744Z" transform="translate(-337.834 -353.612)" fill="#0e3746"/>
    <path id="Path_98" data-name="Path 98" d="M144.424,412.437a3.45,3.45,0,1,0,3.45-3.45A3.454,3.454,0,0,0,144.424,412.437Zm4.757,0a1.308,1.308,0,1,1-1.308-1.308A1.309,1.309,0,0,1,149.181,412.437Z" transform="translate(-123.799 -353.612)" fill="#0e3746"/>
    <path id="Path_99" data-name="Path 99" d="M151.306,257.744a3.168,3.168,0,0,0-.025-4.561l-4.452-4.334a4.069,4.069,0,0,0-5.747.078l-.834.857a1.071,1.071,0,0,0,.02,1.514l4.291,4.177-4.291,4.177a1.071,1.071,0,0,0-.02,1.514l.834.857a4.063,4.063,0,0,0,5.747.078Zm-8.689,2.786-.087-.089,4.312-4.2a1.071,1.071,0,0,0,0-1.535l-4.312-4.2.087-.089a1.924,1.924,0,0,1,2.718-.037l4.452,4.334a1.021,1.021,0,0,1,.025,1.491l-4.477,4.358A1.922,1.922,0,0,1,142.617,260.529Z" transform="translate(-119.959 -215.358)" fill="#0e3746"/>
    <path id="Path_100" data-name="Path 100" d="M377.881,124.024a1.071,1.071,0,0,0,1.071,1.071h3.643a1.071,1.071,0,0,0,0-2.142h-2.571v-6.67a1.071,1.071,0,1,0-2.142,0Z" transform="translate(-323.916 -101.791)" fill="#0e3746"/>
    <path id="Path_101" data-name="Path 101" d="M121.692,99.962h18.443a1.071,1.071,0,0,0,0-2.142H121.692a1.071,1.071,0,1,0,0,2.142Z" transform="translate(-103.395 -86.883)" fill="#0e3746"/>
    <path id="Path_102" data-name="Path 102" d="M90.388,138.709h19.144a1.071,1.071,0,1,0,0-2.142H90.388a1.071,1.071,0,1,0,0,2.142Z" transform="translate(-76.562 -120.096)" fill="#0e3746"/>
    <path id="Path_103" data-name="Path 103" d="M167.079,171.121a1.071,1.071,0,1,0,0,2.142h9.526a1.071,1.071,0,1,0,0-2.142Z" transform="translate(-142.3 -149.715)" fill="#0e3746"/>
    <path id="Path_104" data-name="Path 104" d="M103.846,171.121a1.071,1.071,0,0,0,0,2.142H108.6a1.071,1.071,0,1,0,0-2.142Z" transform="translate(-88.098 -149.715)" fill="#0e3746"/>
    <path id="Path_105" data-name="Path 105" d="M1.071,276.548H4.988a1.071,1.071,0,1,0,0-2.142H1.071a1.071,1.071,0,1,0,0,2.142Z" transform="translate(0 -238.25)" fill="#0e3746"/>
    <path id="Path_106" data-name="Path 106" d="M3.927,355.47H1.071a1.071,1.071,0,0,0,0,2.142H3.927a1.071,1.071,0,0,0,0-2.142Z" transform="translate(0 -307.738)" fill="#0e3746"/>
    <path id="Path_107" data-name="Path 107" d="M86.376,291.959h-3.82a1.071,1.071,0,1,0,0,2.142h3.82a1.071,1.071,0,1,0,0-2.142Z" transform="translate(-69.848 -253.297)" fill="#0e3746"/>
    <path id="Path_108" data-name="Path 108" d="M65.122,58.473a18.138,18.138,0,0,0,8-15.007,17.892,17.892,0,0,0-1.938-8.15,1.071,1.071,0,1,0-1.911.967,15.773,15.773,0,0,1,1.707,7.184,15.99,15.99,0,0,1-7.317,13.406l-6.236-6.824a3.841,3.841,0,0,0-2.83-1.247H40.012A15.941,15.941,0,0,1,66.972,32.9a1.071,1.071,0,0,0,1.6-1.42A18.1,18.1,0,0,0,63.03,27.25V23.622a2.393,2.393,0,0,0-2.39-2.39H49.433a2.393,2.393,0,0,0-2.39,2.39v3.627A18.09,18.09,0,0,0,37.756,48.8H10.443a2.611,2.611,0,0,0-2.6,2.395H3.927a1.071,1.071,0,0,0,0,2.142H7.834V63.69H1.071a1.071,1.071,0,1,0,0,2.142H7.834v3.133a1.071,1.071,0,0,0,0,2.141v7.576a2.041,2.041,0,0,0,2.039,2.039h2.882v.746H9.413a1.071,1.071,0,1,0,0,2.142h4.413A1.071,1.071,0,0,0,14.9,82.538V80.721h.977a8.226,8.226,0,0,0,12.264,6.491,1.071,1.071,0,0,0-1.06-1.862,6.078,6.078,0,1,1,2.493-2.677,1.071,1.071,0,0,0,1.934.922,8.134,8.134,0,0,0,.769-2.873H51.533a8.227,8.227,0,0,0,16.4,0h2.2a2.983,2.983,0,0,0,2.98-2.98V68.706a3.814,3.814,0,0,0-1-2.579ZM49.185,23.622a.249.249,0,0,1,.248-.248H60.639a.249.249,0,0,1,.248.248V26.36a18.06,18.06,0,0,0-11.7,0V23.622Zm6.657,27.87,11.146,12.2H59a1.071,1.071,0,0,0,0,2.142h9.947l1.59,1.74c.648.709.376,1.479.44,2.3H70.15a1.071,1.071,0,1,0,0,2.142h.826V73.6H64.821a8.2,8.2,0,0,0-10.175,0H42.976V50.942H47.6V63.676a2.158,2.158,0,0,0,2.156,2.156h4.965a1.071,1.071,0,1,0,0-2.142H49.751a.014.014,0,0,1-.013-.014V50.942h4.856A1.7,1.7,0,0,1,55.842,51.493Zm-4.2,27.087H42.976V75.738h9.756A8.174,8.174,0,0,0,51.64,78.579ZM31.076,75.738h9.758v2.842H32.169a8.174,8.174,0,0,0-1.093-2.842Zm-21.1,0h7.1a8.174,8.174,0,0,0-1.093,2.842h-6ZM18.987,73.6H9.976V71.106h4.641a1.071,1.071,0,1,0,0-2.142H9.976V65.832h4.641a1.071,1.071,0,1,0,0-2.142H9.976V51.409a.467.467,0,0,1,.467-.467H40.834V73.6H29.162a8.2,8.2,0,0,0-10.175,0ZM59.734,86.144a6.087,6.087,0,1,1,6.087-6.087A6.094,6.094,0,0,1,59.734,86.144Zm10.4-7.565H67.827a8.174,8.174,0,0,0-1.093-2.842h4.242v2A.839.839,0,0,1,70.139,78.579Z" transform="translate(0 -21.232)" fill="#0e3746"/>
  </g>
</svg>
