<svg id="calendar_6_" data-name="calendar (6)" xmlns="http://www.w3.org/2000/svg" width="68.371" height="68.371" viewBox="0 0 68.371 68.371">
  <path id="Path_82" data-name="Path 82" d="M62.525,44.71v-31.5a5.611,5.611,0,0,0-5.6-5.6H54.679V5.363a3.363,3.363,0,1,0-6.725,0V7.6h-5.6V5.363a3.363,3.363,0,1,0-6.725,0V7.6H28.9V5.363a3.363,3.363,0,0,0-6.725,0V7.6h-5.6V5.363a3.363,3.363,0,1,0-6.725,0V7.6H7.6a5.611,5.611,0,0,0-5.6,5.6V58.042a5.611,5.611,0,0,0,5.6,5.6H45.291A13.439,13.439,0,1,0,62.525,44.71ZM50.2,5.363a1.121,1.121,0,1,1,2.242,0v6.725a1.121,1.121,0,1,1-2.242,0Zm-12.329,0a1.121,1.121,0,1,1,2.242,0v6.725a1.121,1.121,0,1,1-2.242,0Zm-13.45,0a1.121,1.121,0,1,1,2.242,0v6.725a1.121,1.121,0,1,1-2.242,0Zm-12.329,0a1.121,1.121,0,1,1,2.242,0v6.725a1.121,1.121,0,0,1-2.242,0ZM7.6,9.846H9.846v2.242a3.363,3.363,0,1,0,6.725,0V9.846h5.6v2.242a3.363,3.363,0,0,0,6.725,0V9.846h6.725v2.242a3.363,3.363,0,1,0,6.725,0V9.846h5.6v2.242a3.363,3.363,0,1,0,6.725,0V9.846h2.242a3.366,3.366,0,0,1,3.363,3.363v5.6H4.242v-5.6A3.366,3.366,0,0,1,7.6,9.846ZM7.6,61.4a3.366,3.366,0,0,1-3.363-3.363V21.054H60.284V43.914a12.8,12.8,0,0,0-5.6-.24V37.867a1.12,1.12,0,0,0-1.121-1.121H46.834a1.12,1.12,0,0,0-1.121,1.121v6.725a1.12,1.12,0,0,0,1.121,1.121H49.5A13.374,13.374,0,0,0,44.256,61.4ZM52.438,43.471H47.954V38.988h4.483Zm4.483,24.658A11.208,11.208,0,1,1,68.129,56.921,11.222,11.222,0,0,1,56.921,68.129Z" transform="translate(-2 -2)" fill="#0e3746"/>
  <path id="Path_83" data-name="Path 83" d="M52.8,50.036V43H50.559v7.036A2.141,2.141,0,0,0,49.471,52.3l-4.1,3.276,1.4,1.751,4.093-3.274A2.234,2.234,0,0,0,52.8,50.036Z" transform="translate(3.241 2.954)" fill="#0e3746"/>
  <path id="Path_84" data-name="Path 84" d="M15.846,22H9.121A1.12,1.12,0,0,0,8,23.121v6.725a1.12,1.12,0,0,0,1.121,1.121h6.725a1.12,1.12,0,0,0,1.121-1.121V23.121A1.12,1.12,0,0,0,15.846,22Zm-1.121,6.725H10.242V24.242h4.483Z" transform="translate(-1.275 0.417)" fill="#0e3746"/>
  <path id="Path_85" data-name="Path 85" d="M26.846,22H20.121A1.12,1.12,0,0,0,19,23.121v6.725a1.12,1.12,0,0,0,1.121,1.121h6.725a1.12,1.12,0,0,0,1.121-1.121V23.121A1.12,1.12,0,0,0,26.846,22Zm-1.121,6.725H21.242V24.242h4.483Z" transform="translate(0.054 0.417)" fill="#0e3746"/>
  <path id="Path_86" data-name="Path 86" d="M37.846,22H31.121A1.12,1.12,0,0,0,30,23.121v6.725a1.12,1.12,0,0,0,1.121,1.121h6.725a1.12,1.12,0,0,0,1.121-1.121V23.121A1.12,1.12,0,0,0,37.846,22Zm-1.121,6.725H32.242V24.242h4.483Z" transform="translate(1.383 0.417)" fill="#0e3746"/>
  <path id="Path_87" data-name="Path 87" d="M42.121,30.967h6.725a1.12,1.12,0,0,0,1.121-1.121V23.121A1.12,1.12,0,0,0,48.846,22H42.121A1.12,1.12,0,0,0,41,23.121v6.725A1.12,1.12,0,0,0,42.121,30.967Zm1.121-6.725h4.483v4.483H43.242Z" transform="translate(2.713 0.417)" fill="#0e3746"/>
  <path id="Path_88" data-name="Path 88" d="M15.846,33H9.121A1.12,1.12,0,0,0,8,34.121v6.725a1.12,1.12,0,0,0,1.121,1.121h6.725a1.12,1.12,0,0,0,1.121-1.121V34.121A1.12,1.12,0,0,0,15.846,33Zm-1.121,6.725H10.242V35.242h4.483Z" transform="translate(-1.275 1.746)" fill="#0e3746"/>
  <path id="Path_89" data-name="Path 89" d="M26.846,33H20.121A1.12,1.12,0,0,0,19,34.121v6.725a1.12,1.12,0,0,0,1.121,1.121h6.725a1.12,1.12,0,0,0,1.121-1.121V34.121A1.12,1.12,0,0,0,26.846,33Zm-1.121,6.725H21.242V35.242h4.483Z" transform="translate(0.054 1.746)" fill="#0e3746"/>
  <path id="Path_90" data-name="Path 90" d="M37.846,33H31.121A1.12,1.12,0,0,0,30,34.121v6.725a1.12,1.12,0,0,0,1.121,1.121h6.725a1.12,1.12,0,0,0,1.121-1.121V34.121A1.12,1.12,0,0,0,37.846,33Zm-1.121,6.725H32.242V35.242h4.483Z" transform="translate(1.383 1.746)" fill="#0e3746"/>
  <path id="Path_91" data-name="Path 91" d="M15.846,44H9.121A1.12,1.12,0,0,0,8,45.121v6.725a1.12,1.12,0,0,0,1.121,1.121h6.725a1.12,1.12,0,0,0,1.121-1.121V45.121A1.12,1.12,0,0,0,15.846,44Zm-1.121,6.725H10.242V46.242h4.483Z" transform="translate(-1.275 3.075)" fill="#0e3746"/>
  <path id="Path_92" data-name="Path 92" d="M26.846,44H20.121A1.12,1.12,0,0,0,19,45.121v6.725a1.12,1.12,0,0,0,1.121,1.121h6.725a1.12,1.12,0,0,0,1.121-1.121V45.121A1.12,1.12,0,0,0,26.846,44Zm-1.121,6.725H21.242V46.242h4.483Z" transform="translate(0.054 3.075)" fill="#0e3746"/>
  <path id="Path_93" data-name="Path 93" d="M37.846,44H31.121A1.12,1.12,0,0,0,30,45.121v6.725a1.12,1.12,0,0,0,1.121,1.121h6.725a1.12,1.12,0,0,0,1.121-1.121V45.121A1.12,1.12,0,0,0,37.846,44Zm-1.121,6.725H32.242V46.242h4.483Z" transform="translate(1.383 3.075)" fill="#0e3746"/>
</svg>
