<svg xmlns="http://www.w3.org/2000/svg" width="72.432" height="72.2" viewBox="0 0 72.432 72.2">
  <path id="Path_68" data-name="Path 68" d="M71.776,34.779a1.063,1.063,0,0,0-1.159.23l-3.184,3.184V16.544a1.063,1.063,0,0,0-1.063-1.063H58.2l2.965-2.965h0l2.857-2.857a3.242,3.242,0,0,0,0-4.584l-3.3-3.3a3.242,3.242,0,0,0-4.584,0L53.278,4.628,49.824,8.082l-7.4,7.4h-33V4.964A1.063,1.063,0,0,0,8.362,3.9,8.371,8.371,0,0,0,0,12.262V57.417a1.066,1.066,0,0,0,.025.228,8.052,8.052,0,0,0,8.028,7.441H40.54L34.422,71.2a1.063,1.063,0,0,0,.752,1.815h36.2a1.063,1.063,0,0,0,1.063-1.063v-36.2A1.063,1.063,0,0,0,71.776,34.779ZM57.641,3.273a1.116,1.116,0,0,1,1.577,0l3.3,3.3a1.117,1.117,0,0,1,0,1.577l-2.107,2.107L55.534,5.38Zm-3.61,3.61,4.881,4.881-1.951,1.951L52.08,8.834ZM70.306,47.707H68.345a1.063,1.063,0,0,0,0,2.126h1.961v3.2H68.345a1.063,1.063,0,0,0,0,2.126h1.961v3.2H68.345a1.063,1.063,0,0,0,0,2.126h1.961v3.2H68.345a1.063,1.063,0,1,0,0,2.126h1.961v5.071H37.74L48.479,60.156a1.063,1.063,0,0,0-1.5-1.5l-4.309,4.309H8.054a5.894,5.894,0,0,1-5.922-5.736q.009-.3.047-.6v0q.018-.141.042-.281l.006-.032q.022-.125.05-.248l.016-.069q.024-.1.052-.208c.01-.037.021-.074.032-.111.016-.054.032-.108.049-.161s.035-.106.054-.159c.013-.037.026-.074.039-.11.026-.07.053-.139.082-.207l.024-.059c.036-.085.074-.169.114-.252l0-.011a6.259,6.259,0,0,1,4.35-3.4l.016,0c.088-.018.177-.033.266-.048l.045-.008c.081-.012.162-.022.244-.031l.069-.008c.079-.008.158-.013.238-.018l.076-.006q.156-.008.314-.008a1.063,1.063,0,0,0,1.063-1.063V42.41a1.063,1.063,0,1,0-2.126,0v6.712a8.3,8.3,0,0,0-4.776,2.311c-.138.135-.269.275-.4.418V12.262A6.246,6.246,0,0,1,7.3,6.117v32.04h0a1.063,1.063,0,1,0,2.126,0h0V17.608H40.3l-5.877,5.877a1.063,1.063,0,0,0,1.5,1.5L43.617,17.3h0l6.958-6.958,4.881,4.881-.573.573h0L33.446,37.229l-4.881-4.881,4.225-4.225a1.063,1.063,0,0,0-1.5-1.5L26.31,31.6a1.067,1.067,0,0,0-.075.084l-.022.03c-.015.02-.03.04-.043.061l-.022.037c-.012.02-.023.04-.033.06s-.013.027-.019.041-.018.042-.026.063-.007.015-.009.022l-2.071,5.867-1.412,4a1.076,1.076,0,0,0-.042.162H19a1.063,1.063,0,0,0,0,2.126H48.44a1.063,1.063,0,0,0,0-2.126H27.317L33.8,39.736l.016-.007c.025-.009.05-.02.074-.031l.029-.013c.025-.013.05-.027.075-.042l.024-.014c.026-.016.051-.034.075-.053l.018-.014a1.067,1.067,0,0,0,.086-.077L56.075,17.608h9.232V40.32L50.1,55.527a1.063,1.063,0,0,0,0,1.5,1.087,1.087,0,0,0,.081.073,1.063,1.063,0,0,0,1.423-.073h0l18.7-18.7ZM31.5,38.292l-3.045,1.075-2.029-2.029L27.5,34.293Z" transform="translate(0 -0.82)" fill="#0e3746"/>
</svg>
