<svg id="compare" xmlns="http://www.w3.org/2000/svg" width="72.093" height="60.465" viewBox="0 0 72.093 60.465">
  <path id="Path_70" data-name="Path 70" d="M76.024,48H12.07A4.074,4.074,0,0,0,8,52.07V104.4a4.074,4.074,0,0,0,4.07,4.07H76.024a4.074,4.074,0,0,0,4.07-4.07V52.07A4.074,4.074,0,0,0,76.024,48Zm1.744,56.4a1.746,1.746,0,0,1-1.744,1.744H12.07a1.746,1.746,0,0,1-1.744-1.744V57.3H77.768Zm0-49.419H10.326V52.07a1.746,1.746,0,0,1,1.744-1.744H76.024a1.746,1.746,0,0,1,1.744,1.744Z" transform="translate(-8 -48)" fill="#0e3746"/>
  <path id="Path_71" data-name="Path 71" d="M33.163,74.326h1.163a1.163,1.163,0,1,0,0-2.326H33.163a1.163,1.163,0,1,0,0,2.326Z" transform="translate(-28.512 -68.512)" fill="#0e3746"/>
  <path id="Path_72" data-name="Path 72" d="M65.163,74.326h1.163a1.163,1.163,0,0,0,0-2.326H65.163a1.163,1.163,0,1,0,0,2.326Z" transform="translate(-55.86 -68.512)" fill="#0e3746"/>
  <path id="Path_73" data-name="Path 73" d="M97.163,74.326h1.163a1.163,1.163,0,0,0,0-2.326H97.163a1.163,1.163,0,0,0,0,2.326Z" transform="translate(-83.209 -68.512)" fill="#0e3746"/>
  <path id="Path_74" data-name="Path 74" d="M67.768,136h-18.6A1.163,1.163,0,0,0,48,137.163v18.6a1.163,1.163,0,0,0,1.163,1.163h18.6a1.163,1.163,0,0,0,1.163-1.163v-18.6A1.163,1.163,0,0,0,67.768,136ZM66.6,154.6H50.326V138.326H66.6Z" transform="translate(-42.186 -123.209)" fill="#0e3746"/>
  <path id="Path_75" data-name="Path 75" d="M91.4,172.371,86.9,160.743A1.163,1.163,0,0,0,85.817,160h-.006a1.164,1.164,0,0,0-1.08.731L80.08,172.359a1.163,1.163,0,0,0,2.16.863l1.568-3.92h3.91l1.515,3.908a1.163,1.163,0,0,0,2.169-.84Zm-6.663-5.394,1.055-2.64,1.023,2.64Z" transform="translate(-69.532 -143.721)" fill="#0e3746"/>
  <path id="Path_76" data-name="Path 76" d="M339.768,280h-18.6A1.163,1.163,0,0,0,320,281.163v18.6a1.163,1.163,0,0,0,1.163,1.163h18.6a1.163,1.163,0,0,0,1.163-1.163v-18.6A1.163,1.163,0,0,0,339.768,280ZM338.6,298.6H322.326V282.326H338.6Z" transform="translate(-274.651 -246.279)" fill="#0e3746"/>
  <path id="Path_77" data-name="Path 77" d="M359.933,308.669a3.448,3.448,0,0,0,.206-1.18A3.493,3.493,0,0,0,356.651,304h-3.488A1.163,1.163,0,0,0,352,305.163v11.628a1.163,1.163,0,0,0,1.163,1.163h6.4a4.074,4.074,0,0,0,4.07-4.07v-1.163A4.076,4.076,0,0,0,359.933,308.669Zm-5.608-2.343h2.326a1.163,1.163,0,1,1,0,2.326h-2.326Zm6.977,7.558a1.746,1.746,0,0,1-1.744,1.744h-5.233v-4.651h5.233a1.746,1.746,0,0,1,1.744,1.744Z" transform="translate(-302 -266.791)" fill="#0e3746"/>
  <path id="Path_78" data-name="Path 78" d="M201.163,202.326h25.582V209.3a1.163,1.163,0,1,0,2.326,0v-8.14A1.163,1.163,0,0,0,227.907,200H201.163a1.163,1.163,0,1,0,0,2.326Z" transform="translate(-172.093 -177.907)" fill="#0e3746"/>
  <path id="Path_79" data-name="Path 79" d="M139.907,296.14H114.326v-6.977a1.163,1.163,0,1,0-2.326,0V297.3a1.163,1.163,0,0,0,1.163,1.163h26.744a1.163,1.163,0,1,0,0-2.326Z" transform="translate(-96.884 -253.116)" fill="#0e3746"/>
</svg>
