<svg xmlns="http://www.w3.org/2000/svg" width="180.745" height="20.343" viewBox="0 0 180.745 20.343">
  <g id="Group_92" data-name="Group 92" transform="translate(-993.009 -2828)">
    <path id="Path_63" data-name="Path 63" d="M51.529,106.831A10.171,10.171,0,1,0,41.358,96.659,10.079,10.079,0,0,0,51.529,106.831Z" transform="translate(984.819 2741.512)" fill="#f8df3f" fill-rule="evenodd"/>
    <path id="Path_64" data-name="Path 64" d="M64.739,92.327c-.117-3.859,2.221-5.612,5.262-5.612,3.156,0,5.378,1.754,5.378,5.612v8.767c0,3.391-1.988,5.612-5.378,5.612-3.274,0-5.378-2.221-5.262-5.612V92.327Zm4.092,9.119c0,.584,0,1.87,1.169,1.87,1.286,0,1.286-1.286,1.286-1.87V91.859c0-.584,0-1.753-1.286-1.753-1.169,0-1.169,1.169-1.169,1.753ZM87.069,87.183v14.264c0,3.507-1.87,5.26-5.027,5.26-3.04,0-5.028-2.221-5.028-5.612V87.183a.344.344,0,0,1,.352-.351h3.39c.468,0,.351.351.351.351v13.912c0,1.052,0,1.872.935,1.872s.935-.82.935-1.872V87.183a.343.343,0,0,1,.351-.351h3.391A.344.344,0,0,1,87.069,87.183Zm23.384,6.2h-2.807a.344.344,0,0,1-.352-.351v-.468c0-1.637-.584-2.572-2.1-2.572a1.7,1.7,0,0,0-1.756,1.636c0,1.871,2.34,2.572,4.562,3.975a6.26,6.26,0,0,1,3.389,5.262,5.8,5.8,0,0,1-1.635,4.208,5.641,5.641,0,0,1-4.21,1.637,6.26,6.26,0,0,1-4.56-1.87,5.866,5.866,0,0,1-1.519-4.092v-1.4s0-.233.35-.233h3.039c.352,0,.352.233.352.233v1.4a2.431,2.431,0,0,0,2.455,2.455,2,2,0,0,0,2.105-2.105c0-1.635-1.521-2.1-3.039-3.039-2.457-1.4-5.028-2.571-5.028-5.962a5.185,5.185,0,0,1,1.521-3.624,5.556,5.556,0,0,1,4.208-1.754,5.207,5.207,0,0,1,3.975,1.4,5.97,5.97,0,0,1,1.4,3.858v1.052A.342.342,0,0,1,110.453,93.379Zm2.1-1.052c0-3.859,2.221-5.612,5.379-5.612,3.039,0,5.378,1.754,5.378,5.612v8.767c0,3.391-2.1,5.612-5.378,5.612-3.391,0-5.379-2.221-5.379-5.612Zm4.091,9.119c0,.584,0,1.87,1.288,1.87,1.169,0,1.169-1.286,1.169-1.87V91.859c0-.584,0-1.753-1.169-1.753-1.288,0-1.288,1.169-1.288,1.753ZM135,87.183v14.264c0,3.507-1.989,5.26-5.028,5.26-3.157,0-5.144-2.221-5.144-5.612V87.183a.343.343,0,0,1,.35-.351h3.509a.343.343,0,0,1,.35.351v13.912c0,1.052,0,1.872.936,1.872s.934-.82.934-1.872V87.183a.344.344,0,0,1,.352-.351h3.391A.344.344,0,0,1,135,87.183Zm23.264,11.458v3.039c0,3.509-1.87,5.028-5.028,5.028-2.807,0-4.793-1.87-4.793-5.028V91.391a4.493,4.493,0,0,1,4.793-4.676c2.338,0,5.028.935,5.028,5.028v3.039a.343.343,0,0,1-.35.351h-3.275a.344.344,0,0,1-.352-.351V91.859c0-.7-.233-1.286-.936-1.286-.818,0-.818.584-.818,1.286v9.587c0,.468,0,1.521.936,1.521s.934-1.052.934-1.521V98.64a.344.344,0,0,1,.352-.352h3.275s.233,0,.233.353ZM164,87.183v18.824s-.116.352-.352.352h-3.273c-.352,0-.236-.352-.236-.352V87.183c0-.351.236-.351.236-.351h3.273A.344.344,0,0,1,164,87.183ZM12.245,106.357H8.856c-.351,0-.351-.236-.351-.236V87.183a.343.343,0,0,1,.351-.351h6.079c2.221,0,3.391,1.988,3.391,3.858v4.092c0,2.806-1.871,3.625-3.975,3.625H13.065a.623.623,0,0,0-.468.584v7.014a.345.345,0,0,1-.352.352ZM12.6,91.041V94.2c0,.467.233.468.233.468h.351c1.169,0,1.52-.7,1.52-1.987s-.233-2.1-1.636-2.1H12.83s-.233,0-.233.467Zm26.422-4.208h3.507c.351,0,.234.117.234.117l-4.092,9v.7l3.975,9.586s0,.118-.351.118H39.018c-.468,0-.468-.118-.468-.118L36.1,100.045h-.233v5.962a.344.344,0,0,1-.351.352H32.236a.344.344,0,0,1-.351-.352V87.183a.343.343,0,0,1,.351-.351h3.275a.343.343,0,0,1,.351.351v5.963a.163.163,0,0,0,.234,0l2.572-6.2s0-.117.35-.117Zm56.353,19.525H92.1a.344.344,0,0,1-.351-.352V91.041a.459.459,0,0,0-.468-.468H88.59a.343.343,0,0,1-.351-.351v-3.04a.343.343,0,0,1,.351-.351H98.761s.234,0,.234.351v3.04c0,.351-.234.351-.234.351H96.189a.458.458,0,0,0-.468.468v14.965a.344.344,0,0,1-.351.352Zm51.441,0h-3.039c-.584,0-.584-.236-.584-.236a15.338,15.338,0,0,1-.236-3.391V99.924c0-1.169-.584-2.1-1.635-2.1h-.352a.458.458,0,0,0-.468.466V106a.344.344,0,0,1-.352.352h-3.273c-.236,0-.236-.352-.236-.352V87.183s0-.351.236-.351h6.2c2.219,0,3.74,1.4,3.74,4.676,0,2.339-.818,3.624-2.923,4.443v.117a3.767,3.767,0,0,1,2.923,3.741v2.923a31.925,31.925,0,0,0,.116,3.391s.118.233-.115.233ZM140.5,90.924v2.923c0,.584.584.468.584.468h.468c1.052,0,1.4-.584,1.4-1.871s-.233-2.1-1.635-2.1h-.352s-.467,0-.467.584Zm32.735,15.315L169.843,97a.114.114,0,0,0-.116-.116v9.119a.344.344,0,0,1-.352.352H166.22a.345.345,0,0,1-.352-.352V87.183a.344.344,0,0,1,.352-.351h3.623c.352,0,.352.117.352.117l3.507,9.586s0,.236.116.236V87.183a.344.344,0,0,1,.352-.351h3.391a.343.343,0,0,1,.35.351v18.824a.344.344,0,0,1-.35.352h-3.975c-.352,0-.352-.119-.352-.119Zm15.081,0c-.116-.116-.7-.934-.7-.934a.406.406,0,0,0-.233-.116c-.117,0-.116,0-.236.116a4,4,0,0,1-3.155,1.4c-1.4,0-4.56-.934-4.56-4.325V92.094c0-3.741,1.987-5.378,4.911-5.378a4.518,4.518,0,0,1,4.909,4.56v2.1s0,.234-.352.234h-3.155c-.352,0-.352-.234-.352-.234V91.86c0-.7-.116-1.52-1.05-1.52s-1.052,1.169-1.052,1.755v9c0,.584,0,1.872,1.052,1.872.7,0,1.169-.468,1.169-1.521v-1.052a.616.616,0,0,0-.468-.584h-.352c-.35,0-.35-.233-.35-.233V96.653a.343.343,0,0,1,.35-.351H188.9a.344.344,0,0,1,.352.351v9.354a.344.344,0,0,1-.352.352h-.116a.413.413,0,0,1-.467-.119Zm-168.353-.116V87.183s-.117-.351.233-.351H25.69c2.339,0,2.689.468,3.274.935a3.649,3.649,0,0,1,1.052,2.455v3.624c0,.935-.234,1.52-.584,1.754a1.972,1.972,0,0,1-1.286.7v.116a1.969,1.969,0,0,1,1.286.7c.351.236.584.584.584,1.756v3.74a3.72,3.72,0,0,1-1.052,2.923c-1.052,1.052-2.1.82-3.04.82H20.2a.229.229,0,0,1-.233-.234Zm4.092-7.482v3.391c0,.584.468.468.468.468h.117c.7,0,1.52-.236,1.52-2.221,0-1.4-.584-2.105-1.636-2.105h-.117S24.054,98.172,24.054,98.641Zm0-7.483v2.806c0,.584.351.468.351.468h.117c.935,0,1.52-.584,1.52-1.871,0-1.4-.7-1.871-1.4-1.871H24.4S24.054,90.691,24.054,91.158Z" transform="translate(984.504 2741.519)" fill-rule="evenodd"/>
  </g>
</svg>
