<svg xmlns="http://www.w3.org/2000/svg" width="53.08" height="36.928" viewBox="0 0 53.08 36.928">
  <g id="Group_89" data-name="Group 89" transform="translate(-702.586 -2820)">
    <path id="Path_59" data-name="Path 59" d="M79.866,37.215a14.39,14.39,0,0,1,1.826,4.7,15.156,15.156,0,0,0-13.834,8.718,16.182,16.182,0,0,0-1.322,6.591A12.788,12.788,0,0,1,56.947,49.2a13.51,13.51,0,0,1,3.1-14.146A12.823,12.823,0,0,1,74.022,32.3a13.176,13.176,0,0,1,5.844,4.916Z" transform="translate(661.628 2788.701)" fill-rule="evenodd"/>
    <path id="Path_60" data-name="Path 60" d="M22.495,83.984a16.535,16.535,0,0,0,5.513,2.3A12.869,12.869,0,0,1,5.479,90.552,13.53,13.53,0,0,1,3.894,77.331,13.314,13.314,0,0,1,16.284,69.4,15.184,15.184,0,0,0,22.495,83.984Zm31.4-7.027a12.556,12.556,0,0,1,1.992,7.564l-25.794.013A12.958,12.958,0,0,1,49.838,72.945,13.153,13.153,0,0,1,53.893,76.957Zm1.832,10.566-25.632-.007.02-1.387,22.582-.038,3.051.045-.02,1.387Zm-.463,1.657c-1.053.909-2.2,1.863-3.161,2.773,1.025,1.032,2.351,2.023,3.514,3.057l-2.5-.037-2.694-2.259-.926.079-.015,2.218-1.71,0V89.163l1.664.024a9.169,9.169,0,0,0,.084,2.128c1.591.231,2.123-1.4,3.359-2.123C53.55,89.225,54.43,89.122,55.262,89.181Zm-9.712.3a2.225,2.225,0,0,1,.413,1.786c-.052.392-.519.686-.8.867a1.116,1.116,0,0,1,1.051.847,2.368,2.368,0,0,1-.3,1.776l-.443.271-6.819.015c-.02-1.8-.079-4.069-.03-5.824,2.081-.085,4.438.019,6.541.027l.389.236Zm-9.12-.192c1.494.554.677,2.241.867,3.446a1.559,1.559,0,0,1-.963.98l-4.5.051.006,1.255H30.192l-.008-5.769Z" transform="translate(699.751 2761.412)" fill-rule="evenodd"/>
    <path id="Path_61" data-name="Path 61" d="M117.558,144.207c-.073.23-.034.716-.448.618l-3.31-.031,0-.919c1.179-.029,2.452-.08,3.606.007Zm-8.717.219c-.1.415.261,1.113-.341,1.2l-3.212.018a6.734,6.734,0,0,1,.068-1.543l3.212.047Zm9.031,1.958c0,.278-.009.6-.242.713-1.11.076-2.49.016-3.809-.028l-.013-.976,3.836.056Z" transform="translate(626.531 2708.095)" fill="#fff" fill-rule="evenodd"/>
  </g>
</svg>
