<svg xmlns="http://www.w3.org/2000/svg" width="162.26" height="34.531" viewBox="0 0 162.26 34.531">
  <g id="Group_93" data-name="Group 93" transform="translate(-1317.102 -2821)">
    <path id="Path_66" data-name="Path 66" d="M140.94,93.122v-.436l.176.436Zm0-5.853c.81,3.822,4.369,6.334,8.541,6.334a10.93,10.93,0,0,0,4.651-.83l.59-2.206h-.349c-.7,1.18-3.146,1.748-4.3,1.748-3.735,0-5.481-3.713-5.481-6.859,0-3.254,1.287-7.557,5.351-7.557a5.267,5.267,0,0,1,3.952,2.206h.35l.48-2.446a23.154,23.154,0,0,0-4.651-1.158c-4.98,0-8.343,2.927-9.13,7.142v3.624h0Zm24.114-10.637-.108,2.075-5.243-.35v5l5.133-.218v2.424l-5.133-.35V91.4l5.351-.131-.108,1.856H156.23V76.632ZM140.94,83.643v3.625a8.718,8.718,0,0,1-.174-1.7A11.108,11.108,0,0,1,140.94,83.643Zm0,9.042-6.224-16.054h-1.792v4.783l.044-.153,1.987,5.482h-2.031v1.376h2.49l1.748,5h3.777v-.437Zm-8.016-16.054v4.783l-2.053,5.33h2.053v1.376H130.3l-1.747,5h-1.989v-.284l6.291-16.206h.064ZM126.569,89.5a4.577,4.577,0,0,0,.132-1.135,2.245,2.245,0,0,0-.132-.765Zm0-1.9v1.9c-.808,3.888-5.918,4.5-9.762,2.578.349-1.157.59-2.424.83-3.015h.219c1.157,3.145,5.7,4.412,5.7.35,0-2.8-6.859-2.447-6.859-7.8,0-4.631,5-5.809,8.956-3.953a15.794,15.794,0,0,0-.7,2.446l-.349-.219a2.905,2.905,0,0,0-2.687-1.988c-1.857,0-2.556.939-2.556,2.447,0,2.906,6.291,4.216,7.208,7.252Zm0,5.242-.108.284h.108Zm-16.447,13.148v-1.441c.153-.284.307-.567.415-.83a15.408,15.408,0,0,0,1.157-2.206,24.55,24.55,0,0,0,1.4-2.556h.459c0,1.617.349,2.905.349,3.6,0,.677.24,1.726.24,2.664.108,1.049.349,2.206.349,3.146.108.808.349,1.748.459,2.424h-1.615c0-.676-.24-1.966-.24-3.254-.11-1.267-.35-2.555-.35-3.363-.108-.939-.349-1.748-.349-2.316q-1.167,2.047-2.272,4.128Zm0-16.315V84.386c1.879-.48,2.163-1.857,2.163-3.123,0-1.791-.766-2.555-2.163-2.861V76.654c2.316.218,4.936,1.289,4.936,4.259a4.121,4.121,0,0,1-3.713,4.193,74.171,74.171,0,0,0,5,8.016h-4.194l-2.031-3.45Zm5.766,9.282h1.507v11.838h-1.507V98.954Zm-5.766-22.3V78.4a10.992,10.992,0,0,0-2.031-.153l-.108,6.269a7.059,7.059,0,0,0,2.14-.131v5.286l-2.271-3.866v7.317h-3.363V76.632h4.76c.284,0,.592,0,.874.022Zm0,27.892v1.441a47.1,47.1,0,0,0-2.271,4.7h-.219l-.938-1.857c-.219-.458-.567-1.288-.808-1.748-.24-.567-.59-1.157-.808-1.616-.24-.59-.7-1.288-.94-1.879-.24-.458-.7-1.158-1.049-1.725,0,.35-.108,1.267-.108,2.316-.11.938-.349,1.987-.349,2.8a17.484,17.484,0,0,0-.24,2.1c0,.568-.11,1.267-.11,1.725h-1.157c0-.567.219-1.966.459-3.713a48.5,48.5,0,0,0,.7-5,31.063,31.063,0,0,0,.459-3.124h.349a25.179,25.179,0,0,0,1.748,3.124,26.225,26.225,0,0,0,1.506,3.036,17.223,17.223,0,0,0,1.859,3.015c0-.109.349-.7.83-1.748.393-.633.786-1.245,1.091-1.834Zm-34.16,6.487v-.459a7.165,7.165,0,0,0,2.031-.458,6.2,6.2,0,0,0,1.638-1.4,5.877,5.877,0,0,0,.808-1.988,7.688,7.688,0,0,0,.48-1.966,10.2,10.2,0,0,0-.35-2.1,4.974,4.974,0,0,0-.83-1.748,6.873,6.873,0,0,0-1.616-1.288,7.674,7.674,0,0,0-2.162-.568v-.458a8.189,8.189,0,0,1,2.271.349,5.589,5.589,0,0,1,2.1,1.158,3.848,3.848,0,0,1,1.507,1.857,6.4,6.4,0,0,1,.7,2.664,8.847,8.847,0,0,1-.59,2.687,4.612,4.612,0,0,1-1.376,1.966,5.734,5.734,0,0,1-2.1,1.288A10.286,10.286,0,0,1,75.962,111.032Zm8.67-17.91-6.049-16.49h3.953l4.042,12.187,4.3-12.187h2.1l-6.4,16.49Zm18.238-16.49-.13,2.075-5.221-.35v5l5.113-.218v2.424l-5.113-.35V91.4l5.461-.131-.24,1.856H94.135V76.632ZM83.126,98.954h6.136v.219a1.02,1.02,0,0,1-.13.459v.24a.456.456,0,0,0,.13.239c-.349,0-1.047-.131-1.637-.131L85.9,99.871H84.633v4.3h4.15v.807h-.677c-.24,0-.59-.109-.83-.109H84.633v5.918H83.126V98.954Zm8.584,6.728c0,.7.108,1.638.108,2.1a3.249,3.249,0,0,0,.567,1.4,2.832,2.832,0,0,0,1.289.939,8.29,8.29,0,0,0,1.748.219,6.113,6.113,0,0,0,2.314-.459,4.724,4.724,0,0,0,1.289-1.748,8.216,8.216,0,0,0,.349-2.555V98.954h1.048v6.968a7.11,7.11,0,0,1-.7,2.9,2.97,2.97,0,0,1-1.748,1.617,7.023,7.023,0,0,1-2.8.59,9.563,9.563,0,0,1-2.1-.24,2.968,2.968,0,0,1-1.616-.808,2.933,2.933,0,0,1-.94-1.158,5.334,5.334,0,0,1-.219-1.288c0-.459-.13-1.027-.13-1.507V98.955h1.528v6.727ZM75.962,98.6v.458h-.043a5.576,5.576,0,0,0-2.686.809,4.85,4.85,0,0,0-1.617,2.1,9.374,9.374,0,0,0-.59,3.145,6.774,6.774,0,0,0,.59,2.905,7.082,7.082,0,0,0,1.617,1.966,6.791,6.791,0,0,0,2.555.59h.174v.459h-.174a8.96,8.96,0,0,1-2.665-.35,4.774,4.774,0,0,1-1.988-1.266,6.2,6.2,0,0,1-1.267-1.988,5.441,5.441,0,0,1-.174-.633v-4.172l.066-.2a6.591,6.591,0,0,1,1.376-2.1,8.873,8.873,0,0,1,1.988-1.267,10.376,10.376,0,0,1,2.665-.458h.174Zm-6.269,12.187h.284l-.284-.284Zm0-17.67V76.632h.983v16.49h-.983Zm0-16.49v16.49H67.422V76.632h2.271Zm0,25.991V106.8a6.822,6.822,0,0,1-.284-1.922,8.523,8.523,0,0,1,.284-2.25Zm0,7.885-.065-.065-.808-1.027-3.6-4.543a5.542,5.542,0,0,0,2.664-1.158,2.554,2.554,0,0,0,.939-2.1,3.479,3.479,0,0,0-.459-1.507,7.085,7.085,0,0,0-1.289-.939,10.308,10.308,0,0,0-2.031-.219v.765c.131.022.24.043.284.043a1.922,1.922,0,0,1,1.988,2.1,2.266,2.266,0,0,1-.59,1.616,3.031,3.031,0,0,1-1.617.939h-.066v2.425l1.922,2.578c.218.219.7.918,1.048,1.376h1.682v-.284h0ZM65.041,93.122V76.632h1.114v16.49Zm0-16.49v16.49h-.873l-7.273-8.168V79.472l7.273,8.65V76.632Zm0,22.322v.765a4.452,4.452,0,0,0-.873-.088,6.864,6.864,0,0,1-.7.13h-.7v4.652h2.271v2.425l-.174-.219-1.4-1.638h-.7v5.809H61.264V98.953h3.777Zm-8.147,6.509V104.7a2.689,2.689,0,0,0,1.464-.764,2.485,2.485,0,0,0,.808-1.966,2.972,2.972,0,0,0-.219-1.049,1.24,1.24,0,0,0-.7-.808,1.6,1.6,0,0,0-1.048-.35c-.088,0-.2-.021-.306-.021v-.787a19.217,19.217,0,0,1,2.053.219,4.7,4.7,0,0,1,1.376,1.049,3.3,3.3,0,0,1,.48,1.638,3.228,3.228,0,0,1-.24,1.267,2.324,2.324,0,0,1-.808,1.049,3.171,3.171,0,0,1-1.048.7A5.569,5.569,0,0,1,56.894,105.463Zm0-25.991v5.482l-2.839-3.211V93.122H51.15L41.037,81.5V93.122H39.289V76.632h2.206l9.763,11.489V76.632h3.254Zm0,19.482v.787a6.994,6.994,0,0,0-1.092-.109,7.65,7.65,0,0,0-1.158.13v4.871c.219,0,.568.131.7.131h.918a2.934,2.934,0,0,0,.633-.066v.765H56.85c-.24,0-.59.109-.939.109H55.1a1.162,1.162,0,0,1-.459-.109v5.33H53.115V98.954h3.779ZM30.052,88.12V86.744h2.031l-1.988-5.482-.043.153V76.631h1.791l6.4,16.49H34.288l-1.748-5H30.052ZM16.269,92.074c-6.05,3.6-13.476.35-13.476-6.968,0-7.1,9.064-10.7,13.128-7.1a9.081,9.081,0,0,0-.59,2.447h-.35c-4.282-5.569-9.415-.219-9.415,4.892,0,3.713,2.555,8.366,7.688,6.4v-5.7h3.014v6.029ZM30.052,76.632v4.783l-2.031,5.33h2.031v1.376H27.431l-1.748,5h-2.1l6.4-16.49h.065Zm-11.118.35h3.254v16.14H18.934Z" transform="translate(1314.309 2744.498)" fill-rule="evenodd"/>
  </g>
</svg>
