<svg xmlns="http://www.w3.org/2000/svg" width="73.191" height="54.592" viewBox="0 0 73.191 54.592">
  <defs>
    <style>
      .cls-1, .cls-2 {
        fill-rule: evenodd;
      }

      .cls-2 {
        fill: #db812e;
      }
    </style>
  </defs>
  <g id="Group_90" data-name="Group 90" transform="translate(-189 -2811)">
    <path id="Path_52" data-name="Path 52" class="cls-1" d="M2.844,113.574v4.3H4.929V129.78H2.844l-.01,4.318h8.934V129.78H10.062v-9.59l4.516,4.367,4.651-4.452v9.66l-1.85.014V134.1h9.212V129.78H24.557V117.872h2.034v-4.3H19.209l-4.631,4.3-4.611-4.3H2.844Zm49.434,0v4.3h2.084V129.78H52.278l-.01,4.318H61.2V129.78H59.5v-9.59l4.512,4.367,4.65-4.452v9.66l-1.845.014V134.1h9.213V129.78H73.99V117.872h2.035v-4.3H68.643l-4.636,4.3-4.607-4.3H52.278Z" transform="translate(186.166 2731.449)"/>
    <path id="Path_53" data-name="Path 53" class="cls-2" d="M78.78,75.939H72.791a.736.736,0,0,0-.761.687v4.417H70.672V76.626a2.053,2.053,0,0,1,2.119-1.94h5.929a2.023,2.023,0,0,1,2.139,1.885v.034a3.975,3.975,0,0,0,4.009,3.333H90.2V81.2H84.849a5.326,5.326,0,0,1-5.368-4.491v-.1A.687.687,0,0,0,78.78,75.939Zm4.094.4v.034a1.963,1.963,0,0,0,2.2,1.656l5.123-.015v-1.2h-5.1a.831.831,0,0,1-.866-.627.614.614,0,0,1-.02-.189A5.5,5.5,0,0,0,78.7,71.467l-5.885.02a5.4,5.4,0,0,0-5.581,5.158v4.4h1.338l.025-4.377v-.02a4,4,0,0,1,4.193-3.826H78.78a3.847,3.847,0,0,1,4.094,3.5v.02ZM78.78,65.887H72.791a.733.733,0,0,1-.761-.687V60.648H70.672V65.2a2.057,2.057,0,0,0,2.119,1.965h5.929a2.029,2.029,0,0,0,2.139-1.906v-.04a3.986,3.986,0,0,1,4.009-3.333H90.2V60.633H84.849a5.317,5.317,0,0,0-5.368,4.491v.095A.684.684,0,0,1,78.78,65.887Zm4.094-.4v-.04a1.967,1.967,0,0,1,2.2-1.656l5.123.02v1.2h-5.1a.831.831,0,0,0-.866.627.643.643,0,0,0-.02.194A5.5,5.5,0,0,1,78.7,70.383l-5.885-.02a5.4,5.4,0,0,1-5.581-5.178V60.648h1.338l.025,4.517v.021a4.012,4.012,0,0,0,4.193,3.845H78.78a3.852,3.852,0,0,0,4.094-3.522v-.02Zm-9.332-33.75A12.467,12.467,0,0,0,71.886,33.7h1.025l-.005.582H71.548a9.632,9.632,0,0,0-.945,2.169l2.816-.01.179.572H70.454a9.552,9.552,0,0,0-.284,2.134l4.969.015.522.527-5.467.01a6.045,6.045,0,0,0,.194,2l20.046.01a3.187,3.187,0,0,0-.681-2.025h-12.7a7.052,7.052,0,0,1-3.317-5.7,6.939,6.939,0,0,1,7.009-6.864l-.184-.522c-3.805-.01-6.8,3.089-7.019,5.133Zm7.237-2.751a9.412,9.412,0,0,1,6.377,2.189l-10.406.005a4.675,4.675,0,0,1,4.029-2.194Zm-4.392,2.621H87.674a10.931,10.931,0,0,1,1.805,2.124l-13.544-.01A4.288,4.288,0,0,1,76.388,31.609Zm-.418,2.607H89.813a13.707,13.707,0,0,1,1.069,2.621A7.1,7.1,0,0,1,92.1,45.786l-.652-.249a6.584,6.584,0,0,0-.487-7.7A7.342,7.342,0,0,0,82.108,35.9l.234.557H76.811A2.794,2.794,0,0,1,75.97,34.216Zm1.2,2.79h5.5l.537.846c1.165-.373.975-.756,2.98-.627,1.647.1,2.024.721,3.193,1.89h-11.9l.87-.836A4.7,4.7,0,0,1,77.169,37.006Zm-6.581,5.382a8.613,8.613,0,0,0,.885,2.144l8.566-.01a4.178,4.178,0,0,0,.726-2.134H70.588Zm12.237.01a6.967,6.967,0,0,1-5.253,6.457c-2.954.87-5.959-.259-7.983-3.119l-.487.353c1.676,2.706,4.4,4.293,8.556,3.4a10.031,10.031,0,0,0,9.5-1.741l-5.979-.01.164-.453H87.7a11.771,11.771,0,0,0,1.865-2.208l-6.72-.005.115-.522H89.9A4.706,4.706,0,0,0,90.52,42.4h-7.7ZM71.846,45.134a4.892,4.892,0,0,0,3.129,2.03c1.547.149,2.751-.085,4.666-2.034Z" transform="translate(146.959 2784.395)"/>
  </g>
</svg>
