<svg xmlns="http://www.w3.org/2000/svg" width="83.226" height="18.834" viewBox="0 0 83.226 18.834">
  <path id="Path_55" data-name="Path 55" d="M68.868,89.687v-.109l.055-.3c.683-4.325,5.064-6.734,9.17-6.734a6.069,6.069,0,0,1,4.38,1.533l.547-1.04a.842.842,0,0,1,.658-.465c.985,0,1.971.329,2.984.329.739,0,1.479-.109,2.218-.109.219,0,.657.082.657.383a1.417,1.417,0,0,1-.082.329L87.02,90.207l-.137.411A1.545,1.545,0,0,0,86.8,91c0,.219.274.356.465.356,1.26,0,2.546-1.67,3.231-2.6l1.232,1.314C89.483,92.561,86.061,95.3,82.5,95.3a3.258,3.258,0,0,1-3.258-2.847,7.849,7.849,0,0,1-5.612,2.874A4.787,4.787,0,0,1,68.868,91.9c-2.408,1.7-5.42,3.422-8.487,3.422-1.56,0-3.011-.712-3.011-2.464a2.552,2.552,0,0,1,.247-1.095l-1.533.985C54.14,93.958,52.141,95.3,49.759,95.3a3.307,3.307,0,0,1-3.477-2.847,7.951,7.951,0,0,1-5.612,2.874,4.8,4.8,0,0,1-4.791-3.641l-5.01,2.546a10.042,10.042,0,0,1-4.462,1.095,9.6,9.6,0,0,1-5.612-2.053l.876-1.7a3.151,3.151,0,0,0,1.889.848c2.3,0,3.422-3.477,3.422-5.338a1.688,1.688,0,0,0-1.807-1.779,6.645,6.645,0,0,0-1.04.082l.712-1.725c2.081-.274,3.86-1.259,3.86-3.586,0-.767-.356-1.588-1.232-1.588-1.26,0-2.218,1.287-2.656,2.327L20.74,90.836a6.991,6.991,0,0,1-6.516,4.49A8.106,8.106,0,0,1,8.5,92.671l.63-2.026c.739.739,1.643,1.67,2.765,1.67A1.907,1.907,0,0,0,13.594,91l3.669-9.2a11.274,11.274,0,0,0-3.121,2.19l-1.478-1.232c3.887-3.532,8.788-6.269,14.181-6.269,2.546,0,7.857.931,7.857,4.38,0,2.053-1.862,3.2-3.586,3.778a4.027,4.027,0,0,1,2.628,3.859,7.862,7.862,0,0,1-.356,2.246l2.491-1.04c.821-4.545,4.709-7.173,9.281-7.173a6.111,6.111,0,0,1,4.38,1.533l.52-1.04a.786.786,0,0,1,.657-.465c.985,0,2,.329,3.011.329.274,0,.547-.027.848-.027l.821-.082c.165,0,.356-.027.521-.027.218,0,.657.109.657.411a.734.734,0,0,1-.082.329l-2.436,6.708-.11.383a1.3,1.3,0,0,0-.109.439.559.559,0,0,0,.521.52,4.716,4.716,0,0,0,2.052-1.04l1.424-.876.739-.52,1.78-4.38h-.63c-.465,0-.931-.027-1.369-.027l.657-1.943h1.178c.328,0,.684-.027,1.013-.055l.575-1.095a1.162,1.162,0,0,1,.931-.684l1.014-.054a3.334,3.334,0,0,0,2.436-1.287l.684-.849c.465-.575,1.067-1.369,1.862-1.369a1.054,1.054,0,0,1,.958.958,1.614,1.614,0,0,1-.137.6l-1.423,3.7a3.5,3.5,0,0,0,1.834-.438l.848,1.67A6.632,6.632,0,0,1,67.2,84.925l-1.971,5.229a1.6,1.6,0,0,0-.165.712.34.34,0,0,0,.356.328,7.428,7.428,0,0,0,3.394-1.478l.055-.029Z" transform="translate(-8.502 -76.492)" fill-rule="evenodd"/>
</svg>
