<svg xmlns="http://www.w3.org/2000/svg" width="50.39" height="50.392" viewBox="0 0 50.39 50.392">
  <g id="tips" transform="translate(-0.001 -0.001)">
    <path id="Path_121" data-name="Path 121" d="M33.275,50.394a5.724,5.724,0,0,1-2.36-.508l-4.227-1.919a3.6,3.6,0,0,0-2.98,0l-4.225,1.919a5.7,5.7,0,0,1-7.7-3.19l-1.63-4.345a3.61,3.61,0,0,0-2.106-2.108L3.7,38.613a5.7,5.7,0,0,1-3.188-7.7l1.921-4.225a3.625,3.625,0,0,0,0-2.984L.511,19.482a5.7,5.7,0,0,1,3.188-7.7l4.347-1.63a3.6,3.6,0,0,0,2.106-2.108L11.782,3.7a5.7,5.7,0,0,1,7.7-3.19L23.707,2.43a3.6,3.6,0,0,0,2.98,0L30.912.511a5.7,5.7,0,0,1,7.7,3.19l1.63,4.345a3.61,3.61,0,0,0,2.106,2.108l4.347,1.63a5.7,5.7,0,0,1,3.188,7.7L47.96,23.707a3.625,3.625,0,0,0,0,2.984l1.919,4.223a5.7,5.7,0,0,1-3.188,7.7l-4.347,1.63a3.6,3.6,0,0,0-2.106,2.108L38.609,46.7a5.72,5.72,0,0,1-3.156,3.265,5.65,5.65,0,0,1-2.178.433ZM25.2,45.543a5.722,5.722,0,0,1,2.36.51l4.225,1.919a3.607,3.607,0,0,0,4.864-2.016l1.63-4.345a5.694,5.694,0,0,1,3.335-3.335l4.347-1.63a3.6,3.6,0,0,0,2.014-4.864l-1.921-4.225a5.709,5.709,0,0,1,0-4.719l1.921-4.227a3.6,3.6,0,0,0-2.014-4.864l-4.347-1.63a5.694,5.694,0,0,1-3.335-3.335L36.647,4.44a3.608,3.608,0,0,0-4.866-2.016L27.557,4.343a5.709,5.709,0,0,1-4.719,0L18.613,2.422a3.607,3.607,0,0,0-4.864,2.016L12.12,8.785a5.7,5.7,0,0,1-3.335,3.333l-4.347,1.63a3.608,3.608,0,0,0-2.016,4.866l1.921,4.225a5.709,5.709,0,0,1,0,4.719L2.422,31.784a3.6,3.6,0,0,0,2.014,4.864l4.347,1.63a5.694,5.694,0,0,1,3.335,3.335l1.63,4.345a3.608,3.608,0,0,0,4.866,2.016l4.225-1.919a5.748,5.748,0,0,1,2.36-.51Z" transform="translate(0 0)"/>
    <path id="Path_122" data-name="Path 122" d="M19.05,31.2h-4.2a2.2,2.2,0,0,1-2.1-2.478V25.95a3.716,3.716,0,0,0-1.42-3.011A9.394,9.394,0,0,1,7.5,15.206,9.5,9.5,0,0,1,16.811,6a9.79,9.79,0,0,1,6.8,2.726,9.3,9.3,0,0,1,2.8,6.667,9.413,9.413,0,0,1-3.793,7.52,3.778,3.778,0,0,0-1.459,3.051V29.1A2.1,2.1,0,0,1,19.05,31.2Zm-2.1-23.1h-.107A7.473,7.473,0,0,0,9.6,15.248a7.287,7.287,0,0,0,2.974,6,5.821,5.821,0,0,1,2.274,4.7v2.772a.765.765,0,0,0,.076.416L19.05,29.1V25.964a5.9,5.9,0,0,1,2.3-4.738,7.25,7.25,0,0,0,.777-11.006A7.319,7.319,0,0,0,16.948,8.1Z" transform="translate(8.249 6.598)"/>
    <path id="Path_123" data-name="Path 123" d="M17.35,17.1h-6.3a1.05,1.05,0,1,1,0-2.1h6.3a1.05,1.05,0,1,1,0,2.1Z" transform="translate(10.998 16.498)"/>
  </g>
</svg>
