<svg xmlns="http://www.w3.org/2000/svg" width="55.642" height="44.804" viewBox="0 0 55.642 44.804">
  <g id="move_1_" data-name="move (1)" transform="translate(0 -36)">
    <g id="Group_107" data-name="Group 107" transform="translate(23.65 36)">
      <g id="Group_106" data-name="Group 106">
        <path id="Path_124" data-name="Path 124" d="M219.232,36H208.749a.749.749,0,1,0,0,1.5h10.483a.749.749,0,0,0,0-1.5Z" transform="translate(-208 -36)"/>
      </g>
    </g>
    <g id="Group_109" data-name="Group 109" transform="translate(30.565 36)">
      <g id="Group_108" data-name="Group 108">
        <path id="Path_125" data-name="Path 125" d="M280.749,36a.749.749,0,0,0-.749.749v3.744a.749.749,0,0,0,1.5,0V36.749A.749.749,0,0,0,280.749,36Z" transform="translate(-280 -36)"/>
      </g>
    </g>
    <g id="Group_111" data-name="Group 111" transform="translate(27.338 39.744)">
      <g id="Group_110" data-name="Group 110">
        <path id="Path_126" data-name="Path 126" d="M251.744,76h-3a.749.749,0,0,0,0,1.5h3a.749.749,0,0,0,0-1.5Z" transform="translate(-248 -76)"/>
      </g>
    </g>
    <g id="Group_113" data-name="Group 113" transform="translate(27.072 36)">
      <g id="Group_112" data-name="Group 112">
        <path id="Path_127" data-name="Path 127" d="M248.749,36a.749.749,0,0,0-.749.749v3.744a.749.749,0,0,0,1.5,0V36.749A.749.749,0,0,0,248.749,36Z" transform="translate(-248 -36)"/>
      </g>
    </g>
    <g id="Group_115" data-name="Group 115" transform="translate(12.645 52.342)">
      <g id="Group_114" data-name="Group 114">
        <path id="Path_128" data-name="Path 128" d="M121.734,196h-8.985a.749.749,0,0,0,0,1.5h8.985a.749.749,0,0,0,0-1.5Z" transform="translate(-112 -196)"/>
      </g>
    </g>
    <g id="Group_117" data-name="Group 117" transform="translate(34.932 51.289)">
      <g id="Group_116" data-name="Group 116">
        <path id="Path_129" data-name="Path 129" d="M320.749,180a.749.749,0,0,0-.749.749v12.729a.749.749,0,0,0,1.5,0V180.749A.749.749,0,0,0,320.749,180Z" transform="translate(-320 -180)"/>
      </g>
    </g>
    <g id="Group_119" data-name="Group 119" transform="translate(51.914 71.136)">
      <g id="Group_118" data-name="Group 118">
        <path id="Path_130" data-name="Path 130" d="M475.147,380h-2.231a.749.749,0,0,0,0,1.5h2.231a.749.749,0,0,0,0-1.5Z" transform="translate(-472.168 -380)"/>
      </g>
    </g>
    <g id="Group_121" data-name="Group 121" transform="translate(54.144 71.819)">
      <g id="Group_120" data-name="Group 120">
        <path id="Path_131" data-name="Path 131" d="M496.749,380a.748.748,0,0,0-.749.749v3a.749.749,0,0,0,1.5,0v-3A.748.748,0,0,0,496.749,380Z" transform="translate(-496 -380)"/>
      </g>
    </g>
    <g id="Group_123" data-name="Group 123" transform="translate(1.498 74.814)">
      <g id="Group_122" data-name="Group 122">
        <path id="Path_132" data-name="Path 132" d="M21.99,412h0l-5.241.016a.749.749,0,0,0,0,1.5h0l5.241-.016a.749.749,0,0,0,0-1.5Z" transform="translate(-16 -412)"/>
      </g>
    </g>
    <g id="Group_125" data-name="Group 125" transform="translate(52.647 67.05)">
      <g id="Group_124" data-name="Group 124">
        <path id="Path_133" data-name="Path 133" d="M481.5,340h-.749a.749.749,0,0,0,0,1.5h.749a.749.749,0,0,0,0-1.5Z" transform="translate(-480 -340)"/>
      </g>
    </g>
    <g id="Group_127" data-name="Group 127" transform="translate(53.395 61.95)">
      <g id="Group_126" data-name="Group 126">
        <path id="Path_134" data-name="Path 134" d="M488.749,284a.748.748,0,0,0-.749.749v8.985a.749.749,0,0,0,1.5,0v-8.985A.748.748,0,0,0,488.749,284Z" transform="translate(-488 -284)"/>
      </g>
    </g>
    <g id="Group_129" data-name="Group 129" transform="translate(37.671 50.708)">
      <g id="Group_128" data-name="Group 128">
        <path id="Path_135" data-name="Path 135" d="M331.98,180H320.749a.749.749,0,0,0,0,1.5H331.98a.749.749,0,0,0,0-1.5Z" transform="translate(-320 -180)"/>
      </g>
    </g>
    <g id="Group_131" data-name="Group 131" transform="translate(48.903 51.108)">
      <g id="Group_130" data-name="Group 130">
        <path id="Path_136" data-name="Path 136" d="M445.92,190.169l-4.493-9.734a.749.749,0,1,0-1.36.627l4.493,9.734a.749.749,0,0,0,.681.435.749.749,0,0,0,.679-1.062Z" transform="translate(-439.999 -180)"/>
      </g>
    </g>
    <g id="Group_133" data-name="Group 133" transform="translate(1.498 71.819)">
      <g id="Group_132" data-name="Group 132">
        <path id="Path_137" data-name="Path 137" d="M16.749,380a.748.748,0,0,0-.749.749v3.042a.749.749,0,1,0,1.5,0v-3.042A.748.748,0,0,0,16.749,380Z" transform="translate(-16 -380)"/>
      </g>
    </g>
    <g id="Group_135" data-name="Group 135" transform="translate(0 61.179)">
      <g id="Group_134" data-name="Group 134">
        <path id="Path_138" data-name="Path 138" d="M.749,276a.748.748,0,0,0-.749.749v9.734a.749.749,0,1,0,1.5,0v-9.734A.748.748,0,0,0,.749,276Z" transform="translate(0 -276)"/>
      </g>
    </g>
    <g id="Group_137" data-name="Group 137" transform="translate(0 60.513)">
      <g id="Group_136" data-name="Group 136">
        <path id="Path_139" data-name="Path 139" d="M30.7,276H.749a.749.749,0,0,0,0,1.5H30.7a.749.749,0,0,0,0-1.5Z" transform="translate(0 -276)"/>
      </g>
    </g>
    <g id="Group_139" data-name="Group 139" transform="translate(0 71.136)">
      <g id="Group_138" data-name="Group 138">
        <path id="Path_140" data-name="Path 140" d="M4.493,380H.749a.749.749,0,0,0,0,1.5H4.493a.749.749,0,0,0,0-1.5Z" transform="translate(0 -380)"/>
      </g>
    </g>
    <g id="Group_141" data-name="Group 141" transform="translate(6.739 70.321)">
      <g id="Group_140" data-name="Group 140">
        <path id="Path_141" data-name="Path 141" d="M77.241,364a5.241,5.241,0,1,0,5.241,5.241A5.248,5.248,0,0,0,77.241,364Zm0,8.985a3.744,3.744,0,1,1,3.744-3.744A3.748,3.748,0,0,1,77.241,372.985Z" transform="translate(-72 -364)"/>
      </g>
    </g>
    <g id="Group_143" data-name="Group 143" transform="translate(11.464 73.316)">
      <g id="Group_142" data-name="Group 142">
        <path id="Path_142" data-name="Path 142" d="M106.246,396a2.246,2.246,0,1,0,2.246,2.246A2.249,2.249,0,0,0,106.246,396Zm0,3a.749.749,0,1,1,.749-.749A.749.749,0,0,1,106.246,399Z" transform="translate(-104 -396)"/>
      </g>
    </g>
    <g id="Group_145" data-name="Group 145" transform="translate(40.567 73.316)">
      <g id="Group_144" data-name="Group 144">
        <path id="Path_143" data-name="Path 143" d="M370.246,396a2.246,2.246,0,1,0,2.246,2.246A2.249,2.249,0,0,0,370.246,396Zm0,3a.749.749,0,1,1,.749-.749A.749.749,0,0,1,370.246,399Z" transform="translate(-368 -396)"/>
      </g>
    </g>
    <g id="Group_147" data-name="Group 147" transform="translate(39.169 70.321)">
      <g id="Group_146" data-name="Group 146">
        <path id="Path_144" data-name="Path 144" d="M341.241,364a5.241,5.241,0,1,0,5.241,5.241A5.248,5.248,0,0,0,341.241,364Zm0,8.985a3.744,3.744,0,1,1,3.744-3.744A3.748,3.748,0,0,1,341.241,372.985Z" transform="translate(-336 -364)"/>
      </g>
    </g>
    <g id="Group_149" data-name="Group 149" transform="translate(19.681 74.814)">
      <g id="Group_148" data-name="Group 148">
        <path id="Path_145" data-name="Path 145" d="M184.492,412H168.749a.749.749,0,0,0,0,1.5h15.743a.749.749,0,0,0,0-1.5Z" transform="translate(-168 -412)"/>
      </g>
    </g>
    <g id="Group_151" data-name="Group 151" transform="translate(48.154 74.814)">
      <g id="Group_150" data-name="Group 150">
        <path id="Path_146" data-name="Path 146" d="M438.739,412h-5.99a.749.749,0,0,0,0,1.5h5.99a.749.749,0,0,0,0-1.5Z" transform="translate(-432 -412)"/>
      </g>
    </g>
    <g id="Group_153" data-name="Group 153" transform="translate(44.41 61.33)">
      <g id="Group_152" data-name="Group 152">
        <path id="Path_147" data-name="Path 147" d="M401.734,284h-8.985a.749.749,0,0,0,0,1.5h8.985a.749.749,0,0,0,0-1.5Z" transform="translate(-392 -284)"/>
      </g>
    </g>
    <g id="Group_155" data-name="Group 155" transform="translate(39.685 58.212)">
      <g id="Group_154" data-name="Group 154">
        <path id="Path_148" data-name="Path 148" d="M363.744,255a2.249,2.249,0,0,1-2.246-2.246.749.749,0,0,0-1.5,0,3.748,3.748,0,0,0,3.744,3.744.749.749,0,0,0,0-1.5Z" transform="translate(-360 -252)"/>
      </g>
    </g>
    <g id="Group_157" data-name="Group 157" transform="translate(39.298 50.96)">
      <g id="Group_156" data-name="Group 156">
        <path id="Path_149" data-name="Path 149" d="M360.749,180a.749.749,0,0,0-.749.749v6.739a.749.749,0,0,0,1.5,0v-6.739A.749.749,0,0,0,360.749,180Z" transform="translate(-360 -180)"/>
      </g>
    </g>
    <g id="Group_159" data-name="Group 159" transform="translate(34.932 36)">
      <g id="Group_158" data-name="Group 158">
        <path id="Path_150" data-name="Path 150" d="M320.749,36a.749.749,0,0,0-.749.749V59.212a.749.749,0,0,0,1.5,0V36.749A.749.749,0,0,0,320.749,36Z" transform="translate(-320 -36)"/>
      </g>
    </g>
    <g id="Group_161" data-name="Group 161" transform="translate(22.706 36)">
      <g id="Group_160" data-name="Group 160">
        <path id="Path_151" data-name="Path 151" d="M208.749,36a.749.749,0,0,0-.749.749V59.212a.749.749,0,0,0,1.5,0V36.749A.749.749,0,0,0,208.749,36Z" transform="translate(-208 -36)"/>
      </g>
    </g>
    <g id="Group_163" data-name="Group 163" transform="translate(12.226 41.99)">
      <g id="Group_162" data-name="Group 162">
        <path id="Path_152" data-name="Path 152" d="M112.749,100a.749.749,0,0,0-.749.749v16.473a.749.749,0,0,0,1.5,0V100.749A.749.749,0,0,0,112.749,100Z" transform="translate(-112 -100)"/>
      </g>
    </g>
    <g id="Group_165" data-name="Group 165" transform="translate(17.466 52.424)">
      <g id="Group_164" data-name="Group 164">
        <path id="Path_153" data-name="Path 153" d="M160.749,196a.749.749,0,0,0-.749.749V199a.749.749,0,0,0,1.5,0v-2.246A.749.749,0,0,0,160.749,196Z" transform="translate(-160 -196)"/>
      </g>
    </g>
    <g id="Group_167" data-name="Group 167" transform="translate(12.645 41.99)">
      <g id="Group_166" data-name="Group 166">
        <path id="Path_154" data-name="Path 154" d="M121.734,100h-8.985a.749.749,0,0,0,0,1.5h8.985a.749.749,0,0,0,0-1.5Z" transform="translate(-112 -100)"/>
      </g>
    </g>
    <g id="Group_169" data-name="Group 169" transform="translate(17.466 41.99)">
      <g id="Group_168" data-name="Group 168">
        <path id="Path_155" data-name="Path 155" d="M160.749,100a.749.749,0,0,0-.749.749v1.5a.749.749,0,0,0,1.5,0v-1.5A.749.749,0,0,0,160.749,100Z" transform="translate(-160 -100)"/>
      </g>
    </g>
    <g id="Group_171" data-name="Group 171" transform="translate(1.498 48.661)">
      <g id="Group_170" data-name="Group 170">
        <path id="Path_156" data-name="Path 156" d="M16.749,156a.749.749,0,0,0-.749.749V167.98a.749.749,0,1,0,1.5,0V156.749A.749.749,0,0,0,16.749,156Z" transform="translate(-16 -156)"/>
      </g>
    </g>
    <g id="Group_173" data-name="Group 173" transform="translate(1.498 48.257)">
      <g id="Group_172" data-name="Group 172">
        <path id="Path_157" data-name="Path 157" d="M25.734,156H16.749a.749.749,0,0,0,0,1.5h8.985a.749.749,0,0,0,0-1.5Z" transform="translate(-16 -156)"/>
      </g>
    </g>
    <g id="Group_175" data-name="Group 175" transform="translate(4.493 48.318)">
      <g id="Group_174" data-name="Group 174">
        <path id="Path_158" data-name="Path 158" d="M48.749,156a.749.749,0,0,0-.749.749V159a.749.749,0,0,0,1.5,0v-2.246A.749.749,0,0,0,48.749,156Z" transform="translate(-48 -156)"/>
      </g>
    </g>
    <g id="Group_177" data-name="Group 177" transform="translate(4.493 50.708)">
      <g id="Group_176" data-name="Group 176">
        <path id="Path_159" data-name="Path 159" d="M51.744,180h-3a.749.749,0,0,0,0,1.5h3a.749.749,0,0,0,0-1.5Z" transform="translate(-48 -180)"/>
      </g>
    </g>
    <g id="Group_179" data-name="Group 179" transform="translate(7.488 48.318)">
      <g id="Group_178" data-name="Group 178">
        <path id="Path_160" data-name="Path 160" d="M80.749,156a.749.749,0,0,0-.749.749V159a.749.749,0,0,0,1.5,0v-2.246A.749.749,0,0,0,80.749,156Z" transform="translate(-80 -156)"/>
      </g>
    </g>
  </g>
</svg>
