<svg xmlns="http://www.w3.org/2000/svg" width="62" height="44.385" viewBox="0 0 62 44.385">
  <g id="mover-truck" transform="translate(-8 -40)">
    <path id="Path_116" data-name="Path 116" d="M74.411,400a2.411,2.411,0,1,0,2.411,2.411A2.411,2.411,0,0,0,74.411,400Zm0,3.215a.8.8,0,1,1,.8-.8A.8.8,0,0,1,74.411,403.215Z" transform="translate(-57.569 -322.849)"/>
    <path id="Path_117" data-name="Path 117" d="M402.411,400a2.411,2.411,0,1,0,2.411,2.411A2.411,2.411,0,0,0,402.411,400Zm0,3.215a.8.8,0,1,1,.8-.8A.8.8,0,0,1,402.411,403.215Z" transform="translate(-340.45 -322.849)"/>
    <path id="Path_118" data-name="Path 118" d="M112.8,329.608h2.411a.8.8,0,0,0,0-1.608H112.8a.8.8,0,0,0,0,1.608Z" transform="translate(-90.776 -258.384)"/>
    <path id="Path_119" data-name="Path 119" d="M69,47.4H60.62C59.251,43.043,54.472,40,49,40s-10.251,3.043-11.62,7.4H29a.924.924,0,0,0-1,.822v9.041H17a1.077,1.077,0,0,0-.833.366l-2,2.462v0l-6,7.4A.728.728,0,0,0,8,67.947V79.454a.924.924,0,0,0,1,.822h4.085c.487,2.373,2.987,4.11,5.915,4.11s5.428-1.737,5.915-4.11h29.17c.487,2.373,2.987,4.11,5.915,4.11s5.428-1.737,5.915-4.11H69a.924.924,0,0,0,1-.822V48.22A.924.924,0,0,0,69,47.4ZM15.535,61.371H24v5.754H10.869ZM10,72.056h2A.838.838,0,1,1,12,73.7H10Zm9,10.685c-2.209,0-4-1.472-4-3.288s1.791-3.288,4-3.288,4,1.472,4,3.288S21.208,82.739,19,82.742Zm9-4.11H24.915c-.487-2.373-2.987-4.11-5.915-4.11s-5.428,1.737-5.915,4.11H10V75.344h2a2.513,2.513,0,1,0,0-4.932H10V68.769H25a.924.924,0,0,0,1-.822v-7.4a.924.924,0,0,0-1-.822H16.869l.666-.822H28ZM49,41.644c5.52.005,9.994,3.682,10,8.219,0,3.553-6.63,10.947-10,14.333-3.37-3.384-10-10.778-10-14.333C39.006,45.327,43.48,41.65,49,41.644Zm11,41.1c-2.209,0-4-1.472-4-3.288s1.791-3.288,4-3.288,4,1.472,4,3.288-1.792,3.285-4,3.288Zm8-4.11H65.915c-.487-2.373-2.987-4.11-5.915-4.11s-5.428,1.737-5.915,4.11H30V72.056H68Zm0-8.219H30V49.042h7.043a8.147,8.147,0,0,0-.043.822c0,2.241,1.91,5.655,5.676,10.147,2.748,3.278,5.534,5.976,5.563,6a1.145,1.145,0,0,0,1.523,0c.029-.027,2.815-2.725,5.562-6C59.09,55.519,61,52.1,61,49.864a8.149,8.149,0,0,0-.042-.822H68Z" transform="translate(0 0)"/>
    <path id="Path_120" data-name="Path 120" d="M307.215,94.431A3.215,3.215,0,1,0,304,91.215,3.215,3.215,0,0,0,307.215,94.431Zm0-4.823a1.608,1.608,0,1,1-1.608,1.608A1.608,1.608,0,0,1,307.215,89.608Z" transform="translate(-257.925 -43.177)"/>
  </g>
</svg>
