<svg xmlns="http://www.w3.org/2000/svg" width="48.276" height="27.733" viewBox="0 0 48.276 27.733">
  <g id="delivery_1_" data-name="delivery (1)" transform="translate(0 -103.847)">
    <g id="Group_105" data-name="Group 105" transform="translate(0 103.847)">
      <g id="Group_104" data-name="Group 104" transform="translate(0 0)">
        <path id="Path_109" data-name="Path 109" d="M40.7,120.611a.728.728,0,0,0-.727.729v5.109H38.814a4.591,4.591,0,0,0-9.128,0H14.534V105.305H39.97V107.6a.727.727,0,1,0,1.453,0v-3.022a.728.728,0,0,0-.727-.729H13.808a.728.728,0,0,0-.727.729v.729H4.759a3.315,3.315,0,0,0-3.305,3.316v1.059a.728.728,0,0,0,.727.729h.845l-.554,6.682A3.312,3.312,0,0,0,0,120.286v6.162a.728.728,0,0,0,.727.729H2.2a4.718,4.718,0,0,0,9.411,0c.007,0,.012,0,.018,0h1.453a.728.728,0,0,0,.727.729H29.752a4.591,4.591,0,0,0,9,0H40.7a.728.728,0,0,0,.727-.729V121.34A.728.728,0,0,0,40.7,120.611ZM6.9,130.094a3.281,3.281,0,1,1,3.27-3.281A3.276,3.276,0,0,1,6.9,130.094Zm6.177-4.374H11.628a.664.664,0,0,0-.126.026,4.715,4.715,0,0,0-9.189-.026H1.453v-5.433a1.857,1.857,0,0,1,1.852-1.858h9.776Zm0-8.749H3.939l.545-6.562h8.6Zm0-8.02H2.907v-.33a1.857,1.857,0,0,1,1.852-1.858h8.322Zm24.3,18.2a3.139,3.139,0,0,1-3.135,2.969h0a3.143,3.143,0,0,1-3.087-2.612.658.658,0,0,0-.037-.709,3.135,3.135,0,1,1,6.26.353Z" transform="translate(0 -103.847)"/>
        <path id="Path_110" data-name="Path 110" d="M334.686,167.847H320.979a.979.979,0,0,0,0,1.958h13.707a.979.979,0,1,0,0-1.958Z" transform="translate(-295.221 -162.125)"/>
        <path id="Path_111" data-name="Path 111" d="M294.518,255.847H272.979a.979.979,0,1,0,0,1.958h21.539a.979.979,0,1,0,0-1.958Z" transform="translate(-253.095 -242.258)"/>
        <path id="Path_112" data-name="Path 112" d="M355.749,207.847H344.979a.979.979,0,1,0,0,1.958h10.769a.979.979,0,1,0,0-1.958Z" transform="translate(-316.283 -198.549)"/>
        <path id="Path_113" data-name="Path 113" d="M464.979,169.805h1.958a.979.979,0,0,0,0-1.958h-1.958a.979.979,0,0,0,0,1.958Z" transform="translate(-421.598 -162.125)"/>
        <path id="Path_114" data-name="Path 114" d="M474.937,255.847h-1.958a.979.979,0,1,0,0,1.958h1.958a.979.979,0,1,0,0-1.958Z" transform="translate(-428.619 -242.258)"/>
        <path id="Path_115" data-name="Path 115" d="M468.9,207.847h-3.916a.979.979,0,0,0,0,1.958H468.9a.979.979,0,0,0,0-1.958Z" transform="translate(-421.598 -198.549)"/>
      </g>
    </g>
  </g>
</svg>
