<svg id="calendar_10_" data-name="calendar (10)" xmlns="http://www.w3.org/2000/svg" width="20.824" height="20.824" viewBox="0 0 20.824 20.824">
  <g id="Group_291" data-name="Group 291">
    <g id="Group_290" data-name="Group 290">
      <path id="Path_480" data-name="Path 480" d="M20.38,7.753a.443.443,0,0,0-.443.443V15.95a3.992,3.992,0,0,1-3.988,3.988H4.874A3.992,3.992,0,0,1,.886,15.95V4.874A3.992,3.992,0,0,1,4.874.886H15.95a3.993,3.993,0,0,1,3.963,3.544H3.766a.443.443,0,0,0,0,.886H20.381a.443.443,0,0,0,.443-.443A4.879,4.879,0,0,0,15.95,0H4.874A4.879,4.879,0,0,0,0,4.874V15.95a4.879,4.879,0,0,0,4.874,4.874H15.95a4.879,4.879,0,0,0,4.874-4.874V8.2A.443.443,0,0,0,20.38,7.753Z" fill="#457b9d"/>
    </g>
  </g>
  <g id="Group_293" data-name="Group 293" transform="translate(3.323 7.753)">
    <g id="Group_292" data-name="Group 292">
      <path id="Path_481" data-name="Path 481" d="M83.674,190.638a.443.443,0,0,0,0,.886,1.085,1.085,0,1,1-1.085,1.085.443.443,0,1,0-.886,0,1.972,1.972,0,1,0,1.972-1.972Z" transform="translate(-81.702 -190.638)" fill="#457b9d"/>
    </g>
  </g>
  <g id="Group_295" data-name="Group 295" transform="translate(3.323 12.871)">
    <g id="Group_294" data-name="Group 294">
      <path id="Path_482" data-name="Path 482" d="M85.2,317.989a.443.443,0,0,0-.443.443,1.085,1.085,0,1,1-1.085-1.085.443.443,0,0,0,0-.886,1.972,1.972,0,1,0,1.972,1.972A.443.443,0,0,0,85.2,317.989Z" transform="translate(-81.702 -316.46)" fill="#457b9d"/>
    </g>
  </g>
  <g id="Group_297" data-name="Group 297" transform="translate(8.44 7.753)">
    <g id="Group_296" data-name="Group 296">
      <path id="Path_483" data-name="Path 483" d="M209.495,190.638a1.972,1.972,0,0,0,0,3.943.443.443,0,1,0,0-.886,1.085,1.085,0,1,1,1.085-1.085.443.443,0,0,0,.886,0A1.974,1.974,0,0,0,209.495,190.638Z" transform="translate(-207.523 -190.638)" fill="#457b9d"/>
    </g>
  </g>
  <g id="Group_299" data-name="Group 299" transform="translate(8.44 12.871)">
    <g id="Group_298" data-name="Group 298">
      <path id="Path_484" data-name="Path 484" d="M209.495,316.46a1.974,1.974,0,0,0-1.972,1.972.443.443,0,1,0,.886,0,1.085,1.085,0,1,1,1.085,1.085.443.443,0,0,0,0,.886,1.972,1.972,0,0,0,0-3.943Z" transform="translate(-207.523 -316.46)" fill="#457b9d"/>
    </g>
  </g>
  <g id="Group_301" data-name="Group 301" transform="translate(13.558 12.871)">
    <g id="Group_300" data-name="Group 300">
      <path id="Path_485" data-name="Path 485" d="M335.321,316.46a1.972,1.972,0,1,0,1.972,1.972A1.974,1.974,0,0,0,335.321,316.46Zm0,3.057a1.085,1.085,0,1,1,1.086-1.085A1.087,1.087,0,0,1,335.321,319.517Z" transform="translate(-333.35 -316.46)" fill="#457b9d"/>
    </g>
  </g>
  <g id="Group_303" data-name="Group 303" transform="translate(13.558 7.753)">
    <g id="Group_302" data-name="Group 302">
      <path id="Path_486" data-name="Path 486" d="M336.85,192.167a.443.443,0,0,0-.443.443,1.085,1.085,0,1,1-1.085-1.085.443.443,0,0,0,0-.886,1.972,1.972,0,1,0,1.972,1.972A.443.443,0,0,0,336.85,192.167Z" transform="translate(-333.35 -190.638)" fill="#457b9d"/>
    </g>
  </g>
</svg>
