<svg id="Group_569" data-name="Group 569" xmlns="http://www.w3.org/2000/svg" width="27.401" height="30.69" viewBox="0 0 27.401 30.69">
  <g id="mop">
    <g id="Group_563" data-name="Group 563" transform="translate(0)">
      <g id="Group_562" data-name="Group 562">
        <path id="Path_723" data-name="Path 723" d="M54.085,15.856h-.416A2.033,2.033,0,0,0,52.09,14.15a2.536,2.536,0,0,0-.58-.905,2.509,2.509,0,0,0-1.789-.744,2.57,2.57,0,0,0-.282.016,2.53,2.53,0,0,0-4.663-.277,2.005,2.005,0,0,0-3.813.853,2.018,2.018,0,0,0-1.5,1.5H35.2V10.789a.45.45,0,1,0-.9,0v12.7h-.244V5.027H34.3V8.751a.45.45,0,0,0,.9,0v-8A.75.75,0,0,0,34.451,0h-.544a.75.75,0,0,0-.749.749V14.6h-.321a.75.75,0,0,0-.749.749v2.4a.75.75,0,0,0,.749.749h.321v4.993h-.076a.75.75,0,0,0-.749.749v1.537h-1.6a.75.75,0,0,0-.749.749v.838h-1.24a1.31,1.31,0,0,0-.753,2.382l-.176.176a.45.45,0,0,0,.636.636l.573-.573h.264a.449.449,0,0,0,.688.573l.573-.573h.264a.449.449,0,0,0,.688.573l.573-.573h.264a.449.449,0,0,0,.688.573l.573-.573h.232v.255a.45.45,0,0,0,.9,0v-.255h.232l.573.573a.449.449,0,0,0,.688-.573h.264l.573.573a.449.449,0,0,0,.688-.573h.264l.573.573a.449.449,0,0,0,.688-.573h.264l.573.573a.45.45,0,0,0,.636-.636l-.261-.261a1.318,1.318,0,0,0,.3-.374h5.515a.45.45,0,0,0,0-.9H40.894a1.313,1.313,0,0,0-1.278-1.023h-1.24v-.838a.75.75,0,0,0-.749-.749h-1.6V24.24a.75.75,0,0,0-.749-.749H35.2V18.5H52.6L51.456,24.72l-5.6-2.985a2.4,2.4,0,1,0-1.161,2.151l6.3,3.356-.171.925a.3.3,0,0,1-.266.221H48.686a.45.45,0,1,0,0,.9h1.868a1.2,1.2,0,0,0,1.15-.958l.158-.859a1.222,1.222,0,0,0,.451-2.294l-.025-.013,1.23-6.665h.567a.75.75,0,0,0,.749-.749V16.606A.75.75,0,0,0,54.085,15.856ZM34.058.9H34.3V4.128h-.244ZM33.232,24.39h1.9v1.387h-1.9Zm-.244-8.895h.171v.843h-.171Zm0,2.1v-.361h.171V17.6Zm4.489,9.078v.689h-.539a.45.45,0,0,0,0,.9h2.678a.411.411,0,1,1,0,.823H28.743a.411.411,0,1,1,0-.823H34.6a.45.45,0,0,0,0-.9H30.882v-.689Zm5.984-3.348A1.494,1.494,0,1,1,44.8,21.174l-.493-.263a1.222,1.222,0,1,0-1.149,2.157l.468.249A1.5,1.5,0,0,1,43.461,23.328Zm8.562,3.079a.323.323,0,0,1-.286.171.318.318,0,0,1-.151-.038l-8.006-4.265a.323.323,0,1,1,.3-.57l8.006,4.265A.324.324,0,0,1,52.024,26.407ZM49.721,13.4a1.616,1.616,0,0,1,1.152.479,1.636,1.636,0,0,1,.434.779.45.45,0,0,0,.413.346,1.134,1.134,0,0,1,1.035.852h-1.84a1.639,1.639,0,0,0-1.567-1.172h-.275a1.794,1.794,0,0,0-.48-.829A1.614,1.614,0,0,1,49.721,13.4Zm-2.672-1.682a1.637,1.637,0,0,1,1.527,1.057,2.536,2.536,0,0,0-.644.47c-.049.049-.095.1-.139.153a1.772,1.772,0,0,0-1.477.274,2,2,0,0,0-.856-.694A1.639,1.639,0,0,1,47.049,11.719Zm-5.763,2.231c.009,0,.09-.008.122-.008l.046,0a1.1,1.1,0,0,1,.7.283.45.45,0,1,0,.6-.667,2,2,0,0,0-.891-.465,1.107,1.107,0,0,1,2.215.025c0,.037,0,.074-.006.113a.449.449,0,0,0,.493.492,1.1,1.1,0,0,1,1.141.705,1.789,1.789,0,0,0-.144.706.45.45,0,0,0,.9,0,.892.892,0,0,1,.134-.47c0-.008.039-.059.052-.076a.883.883,0,0,1,1.585.546.45.45,0,0,0,.45.45h.667a.731.731,0,0,1,.568.273H43.678v-.511a.75.75,0,0,0-.749-.749H40.407A1.109,1.109,0,0,1,41.286,13.949ZM35.2,15.495h7.578v.843H35.2Zm18.735,2.1H35.2v-.361h7.728a.75.75,0,0,0,.7-.482H53.935Z" transform="translate(-27.433)" fill="#0e3746"/>
      </g>
    </g>
    <g id="Group_565" data-name="Group 565" transform="translate(16.55 2.715)">
      <g id="Group_564" data-name="Group 564">
        <path id="Path_724" data-name="Path 724" d="M306.493,45.291a3.006,3.006,0,1,0,2.966,3.006A2.989,2.989,0,0,0,306.493,45.291Zm0,5.112A2.107,2.107,0,1,1,308.56,48.3,2.089,2.089,0,0,1,306.493,50.4Z" transform="translate(-303.528 -45.291)" fill="#0e3746"/>
      </g>
    </g>
    <g id="Group_567" data-name="Group 567" transform="translate(22.17 7.994)">
      <g id="Group_566" data-name="Group 566">
        <path id="Path_725" data-name="Path 725" d="M399.071,133.369a1.8,1.8,0,1,0,1.781,1.8A1.794,1.794,0,0,0,399.071,133.369Zm0,2.705a.9.9,0,1,1,.882-.9A.894.894,0,0,1,399.071,136.074Z" transform="translate(-397.29 -133.369)" fill="#0e3746"/>
      </g>
    </g>
  </g>
</svg>
