<svg xmlns="http://www.w3.org/2000/svg" width="173.723" height="81.936" viewBox="0 0 173.723 81.936">
  <g id="kompan-1" transform="translate(-21.55 -55.405)">
    <path id="Path_657" data-name="Path 657" d="M52.368,85.341A12.931,12.931,0,1,1,39.4,98.153,12.952,12.952,0,0,1,52.368,85.341Zm0,17.774a4.8,4.8,0,1,0-4.8-4.883A4.835,4.835,0,0,0,52.368,103.115Zm105.69-33.629a5.965,5.965,0,1,0-6-6A6.046,6.046,0,0,0,158.058,69.487Z" transform="translate(1.624 0.196)" fill="#cc2229" fill-rule="evenodd"/>
    <path id="Path_658" data-name="Path 658" d="M156.383,81.693a5.663,5.663,0,0,0-2.642-2.323l-10.809-5.364a3.713,3.713,0,0,1-1.681-4.964,3.655,3.655,0,0,1,4.884-1.762l8.728,4.4a5.5,5.5,0,0,0,4.565.4L165.351,70a4.484,4.484,0,0,0,2.8-2.322l5.122-10.249a3.689,3.689,0,0,1,6.568,3.362L174.48,71.444s-3.282,5.844,3.6,7.686l13.772,3.364a4.436,4.436,0,0,1,3.284,5.364,4.557,4.557,0,0,1-5.444,3.284l-12.732-2.963c-3.684-.8-6.324.561-6.405,4.8v14.733a4.483,4.483,0,1,1-8.966,0V91.783a7.794,7.794,0,0,0-1.042-3.2l-4.166-6.886ZM33.8,87.859a3.581,3.581,0,0,1,3.123-1.921,4.018,4.018,0,0,1,3.923,4.084,4.148,4.148,0,0,1-.561,2.161l-3.923,5.925,4.8,6.406a4.1,4.1,0,0,1,.64,2.242,4.024,4.024,0,0,1-3.844,4.163,3.267,3.267,0,0,1-2.642-1.281l-5.844-7.688v4.245c0,2.883-1.441,4.724-3.844,4.724s-3.923-1.842-3.923-4.645V90.5c0-2.722,1.6-4.564,3.923-4.564,2.4,0,3.844,1.842,3.844,4.564v3.924Zm51.083.241a3.718,3.718,0,0,1,3.364-2.161c2.082,0,3.443,1.36,3.842,3.763l2.642,15.853a11.841,11.841,0,0,1,.16,1.362,3.882,3.882,0,0,1-3.844,4,3.723,3.723,0,0,1-3.763-3.124l-.88-4.8-1.6,4.4c-.721,2.162-2,3.524-3.842,3.524-1.922,0-3.043-1.281-3.844-3.6l-1.6-4.4-.64,4.163c-.4,2.4-1.842,3.844-3.842,3.844-2.323,0-3.924-1.842-3.924-4.485a3.853,3.853,0,0,1,.081-.959l2.482-15.694c.4-2.4,1.762-3.764,3.764-3.764a4.156,4.156,0,0,1,3.842,2.642l3.683,8.166Zm18.976,18.1c0,2.8-1.6,4.724-3.923,4.724-2.723,0-3.923-1.762-3.923-5.766V90.661c0-3.2,1.441-4.724,4.244-4.724h3.283c6.725,0,10.488,3.2,10.488,8.967a8.671,8.671,0,0,1-8.887,8.887h-1.281Zm0-9.289h.481c2.082,0,2.8-.561,2.8-2.082,0-1.2-.8-1.842-2.642-1.842h-.642v3.923h0Zm11.288,14.013a3.966,3.966,0,0,1-3.923-4.085,6.216,6.216,0,0,1,.561-2.082l7.288-16.413a3.7,3.7,0,0,1,3.523-2.4,3.848,3.848,0,0,1,3.6,2.482l7.366,16.495a4.154,4.154,0,0,1,.4,1.92,3.951,3.951,0,0,1-3.844,4.085c-1.842,0-2.8-.883-3.923-3.362h-7.125c-1.043,2.4-2.163,3.361-3.926,3.361Zm9.289-7.288-1.842-4.162-1.842,4.162h3.683Z" transform="translate(0.015 0)" fill="#cc2229" fill-rule="evenodd"/>
    <path id="Path_659" data-name="Path 659" d="M138.529,88.355c0-3.122,1.44-4.964,3.841-4.964s3.923,1.842,3.923,4.724v15.052c0,3.365-1.359,5.205-3.841,5.205a3.78,3.78,0,0,1-3.124-1.681l-6.083-8.249v5.205c0,2.883-1.442,4.724-3.763,4.724-2.564,0-3.925-1.842-3.925-5.044V87.794c0-2.642,1.6-4.4,4-4.4a3.5,3.5,0,0,1,2.883,1.6l6.086,7.926V88.355h0Z" transform="translate(9.463 2.546)" fill="#cc2229" fill-rule="evenodd"/>
    <path id="Path_660" data-name="Path 660" d="M29.01,111.783a17.571,17.571,0,0,1-3.683,11.129c-.561.159-1.281,1.2-2.082.72-1.921-2.323-2.082-5.844-1.12-8.728.72-1.359.24-3.523,2.242-3.6a1.433,1.433,0,0,1,.159,2.082,8.969,8.969,0,0,0-1.041,3.6,5.807,5.807,0,0,0,.8,4c1.122-.32,1.041-2,1.842-2.8.4-1.842,1.281-3.682.561-5.6.24-.641.88-1.362,1.281-1.362C28.29,111.383,28.77,111.383,29.01,111.783Zm2.8,4.565c.081,1.281-.4,2.8,0,4.161.8-1.281,1.522-2.16,2.482-3.523a5.423,5.423,0,0,0,1.362-.639c.4.239.88.239,1.122.72v6.566c.72.481.32,1.2.4,1.842-.561.561-1.281.4-2.082.322,0-.322-.561-.241-.561-.561a29.269,29.269,0,0,0-.24-5.285,14.967,14.967,0,0,0-2.161,4.563c.159.563-.24.641-.48.961-.72,0-1.6.322-1.842-.479-.8-2.4-.4-5.6-.32-8.086.24-.481.561-.481.96-.961C31.172,115.465,31.012,116.587,31.813,116.348ZM42.462,111.7a30.3,30.3,0,0,1-2,3.925c-.32-.161-.32.159-.4.32-.48-.081-1.2.32-1.441,0-.16-.159-.481-.561-.24-.8a12.964,12.964,0,0,1,.96-1.2c.4-.639,1.042-1.6,1.441-2.242.24-.479.561-.561.961-.8C42.062,111.063,42.462,111.3,42.462,111.7Zm-1.842,5.926c.08,2.482.159,5.044.32,7.366a1.854,1.854,0,0,1-1.921.32c-.882-2.082-.24-4.8-1.041-6.885.4-.561.4-1.12,1.041-1.442.72-.079,1.362,0,1.6.641Zm5.6,2.16a5.437,5.437,0,0,1-1.36,1.681,3.052,3.052,0,0,1,1.281-2.962c1.2-.479.08.8.08,1.281Zm-3.763-.4a10.038,10.038,0,0,0-.24,1.04c.321,1.281-.24,2.962.961,3.763.32.641,1.122.241,1.681.32.16-.239.561-.32.561-.72.48-.4.8-.961,1.2-.961,0,2,1.2,4,.481,6.166.079.32.4.72.72.72a1.754,1.754,0,0,0,1.521-.241c0-3.523-1.12-8.728.56-12.41,0-.561-.8-.561-1.04-.88-.561-.322-1.122.239-1.6-.481-.24,0-.32,0-.48.241-.8-.32-1.041,0-1.522.4a7.625,7.625,0,0,0-2.8,3.044Zm9.528-3.925c.72-.239,1.2.241,1.682.8-.159,1.44-.721,3.443,0,4.965.4-.722.961-1.442,1.281-2.082a10.679,10.679,0,0,0,1.681-2.4c-.08-.883.642-1.042,1.042-1.362.64-.241.721-.241,1.281.079.721.481-.08,1.681-.08,2.482a26.944,26.944,0,0,0,1.362,7.847c0,.72-1.122,0-1.282.561-1.281.079-.96-1.281-1.521-2.082-.159-1.362-1.041-2.323-1.041-3.765-.64.722-1.042,1.922-1.682,2.645-.08.079.081.4-.159.32-.16,1.44-1.2,1.522-2.482,1.281a12.136,12.136,0,0,1-1.122-6.246c-.159-.32-.8-.561-.8-.961s.72-1.2,1.84-2.082ZM62.4,119.391c.081-.8.64-1.843,1.041-1.362.241.239-.08.479-.24.72C63.039,119.15,63.039,119.229,62.4,119.391Zm1.521-3.284a2.932,2.932,0,0,0-2.4.642c-.961.8-1.122,2.881-1.042,4.243.4.72.16,1.6.561,2.4-.081.642.4.883.561,1.362.64-.159.32.642.961.561-.081-.239.48.4.4-.159,1.682.081,2.8-1.522,3.283-2.723.4-.88-.32.4-.561-.159.081,0,.081-.159.081-.32-1.041.081-1.281,1.2-1.922,1.6-.4.32-.882-.161-.882-.563a3.224,3.224,0,0,1-.32-1.842c1.441-.479,3.122-2.16,2.482-4.163C64.8,116.426,64.48,116.348,63.92,116.107Zm12.251-2.162c.24.883-.72.883-.88,1.2v-1.762C75.45,113.625,76.091,113.546,76.17,113.944Zm2.642-.4a2.341,2.341,0,0,0-.88-1.283,3.709,3.709,0,0,0-1.522-1.04c-.561-.481-1.522-.159-1.921-1.042-.882-.239-1.041.561-1.6.961-.561.561.241,1.042.081,1.681.16,1.6.561,3.365-.64,4.485.16.4-.32.4-.24.639.159.561.48.4.88.561a25.665,25.665,0,0,0,0,4.965c.08-.241-.081-.561.16-.72.4,1.04-.321,2.16.561,2.883.639.239.96-.322,1.6-.322,0-2.562-.4-5.2-.08-8.006,1.2-.322,1.681-1.6,2.722-2.082a2.2,2.2,0,0,0,.879-1.682Zm3.122-.961c-.64,3.523.561,6.484.32,10.087,0,.883,1.041,1.922,0,2.564,0-.4-.48-.241-.561-.159-.16.239-.48.079-.72.159-1.362-2.323-1.122-5.124-1.522-7.767.159-1.681-.882-4.4.96-5.205C81.215,112.022,81.215,112.824,81.935,112.585Zm5.685,6.966a27.31,27.31,0,0,1-1.842,2.4c.159-1.2.4-2.642,1.281-3.362.72-.322.8.56.561.961Zm0-2.883a6.862,6.862,0,0,0-2.242,1.281A7.255,7.255,0,0,0,83.937,125c2.482,1.44,2.722-2.323,4.163-3.284a7.458,7.458,0,0,1,.48,1.922c.64.72,1.2,1.842,2.482,1.362.64-.241.882-1.362,1.281-1.842-.4-.241.24.159-.159.159-.321-.72-.961-.322-1.441-.4-.8-1.842-.08-3.844.08-5.685-.8-1.039-1.92-.159-3.2-.56Zm13.451-.961a77.2,77.2,0,0,0-.48,8.008c-.721,3.282-1.6,6.966-4.565,8.487-.4.4-1.12-.241-1.441.159-.24-.32.081-.481.16-.72,1.842-.561,2.8-2.723,3.2-4.724.8-2.162.4-4.645.4-7.047a14.842,14.842,0,0,0-2.082,4.4c-.721,0-1.281,1.04-2,.159a7.466,7.466,0,0,0-1.041-2.482c0-.32.08-.561-.241-.72a8.88,8.88,0,0,0-.64-2.082c-.24-.883-1.041-1.12,0-3.2a4.415,4.415,0,0,1,1.681-1.2c.481.4,1.042.159,1.122.883a11.24,11.24,0,0,0,.4,5.444c.961-1.681,1.842-3.124,2.8-4.884.4-.161,0-.883.24-1.12.8-.322,1.2-1.042,2-.722.159.081.159.481.32.241.159-.32.24.159.32.32,0,.242-.159.561-.159.8Zm3.845,4c-.32.32-.4.88-.8,1.2-.241-.079-.081-1.04-.081-1.6.322-.241.563-.159.961,0,.159.159-.16.241-.08.4Zm-2.723-1.281a2.133,2.133,0,0,0-.561,1.12c-.48.88.4,1.12.08,2.082.32.4.24,1.04.561,1.522,0,.72.48.961.882,1.359,2,.481,1.6-2.082,2.8-3.043.159.4.081.8.481,1.123a6.362,6.362,0,0,1-1.842,6.725c-.481.241-1.363-.081-1.2.8a3.609,3.609,0,0,0,3.6-1.362c3.121-2.642.8-7.447,1.04-11.051,0-.72-1.04-.8-1.2-1.12C104.835,117.068,100.991,118.029,102.192,118.43Zm14.492-2.8c.481.88-.4,1.281-.88,1.842a1.325,1.325,0,0,1-1.681.079c-.88.159-.72,0-1.362.481.241,2.321-.4,4.4-.32,6.405a2.192,2.192,0,0,1-2.242.8c-1.042-2.482.32-5.926-.8-8.089a2.17,2.17,0,0,1,.241-1.281,3.869,3.869,0,0,1,1.281-.639c.88-.081.8,1.76,2.082.72,1.04-.561,1.6-.081,2.562-.72C116.045,115.227,116.123,115.867,116.684,115.628Zm3.043,3.441a2.369,2.369,0,0,1,.722,2.242,15.692,15.692,0,0,1-1.2,2.642,1.146,1.146,0,0,1-.561.161c-.642-1.2-1.362-2.883-.4-4.163.241-.4.8-1.6,1.2-.883Zm-1.84-2.082a17,17,0,0,1-2.323,3.2,6.237,6.237,0,0,0,1.681,4.887c.883.8,1.683.72,2.883.72a10.279,10.279,0,0,0,2.482-4.245c.642-2-.4-3.441-1.842-4.565-.159-.159-.081-.639-.481-.479C119.488,115.628,118.687,116.748,117.886,116.987Zm6.564-1.522c.72-.239,1.281.241,1.762.8-.159,1.44-.72,3.443,0,4.965.4-.722.961-1.442,1.281-2.082a10.75,10.75,0,0,0,1.681-2.4c-.159-.883.641-1.042,1.042-1.362a1.085,1.085,0,0,1,1.281.079c.72.481-.081,1.681-.159,2.482a29.8,29.8,0,0,0,1.362,7.847c0,.72-1.042,0-1.2.561-1.281.079-.961-1.281-1.522-2.082-.159-1.362-1.042-2.323-1.042-3.765-.639.722-1.04,1.922-1.681,2.645-.079.079.081.4-.159.32-.159,1.44-1.2,1.522-2.482,1.281a12.147,12.147,0,0,1-1.12-6.246c-.239-.32-.8-.561-.8-.961s.719-1.2,1.759-2.082Zm11.211.883c.081,1.281-.4,2.8,0,4.161.8-1.281,1.522-2.16,2.482-3.523a5.462,5.462,0,0,0,1.362-.639c.4.239.88.239,1.12.72v6.566c.639.481.239,1.2.4,1.842-.561.561-1.283.4-2.082.322,0-.322-.563-.241-.563-.561a29.071,29.071,0,0,0-.239-5.285,14.944,14.944,0,0,0-2.162,4.563c.159.563-.239.641-.479.961-.72,0-1.6.322-1.843-.479-.8-2.4-.4-5.6-.32-8.086.241-.481.561-.481.961-.961.72-.482.56.639,1.362.4Zm9.768,1.92c-.239,1.522-1.12,2.723-1.281,4.245a4.481,4.481,0,0,1,.241-3.523C144.79,118.749,144.868,118.349,145.429,118.268Zm2-5.683c-1.362.32-1.042,1.842-1.2,3.043-.479.72-1.362.561-1.842,1.04a5.537,5.537,0,0,0-2.564,5.2c0,1.2.322,2.883,1.522,3.524.4-.642,1.12.159,1.442-.4.479-1.12,1.12-2.323,1.52-3.443a8.772,8.772,0,0,0,1.6,2.8c.4.241.481-.479.961-.239.159,0,.32.079.241.239.4-.4,1.281-1.04,1.281-1.44-.081-.241-.159-.32-.4-.241-.159-.079-.159-.241-.159-.4a4.794,4.794,0,0,0-.961.4c-1.44-2.883-.32-6.646-.159-9.848-.562.322-.562-.561-1.282-.239Zm8.086,1.521c.239.88-.72,1.12-1.281,1.681-1.2.961-.883,2.881-.8,4.082.241,2.323,2.082,4.965.241,7.125a4.254,4.254,0,0,1-3.123.883,1.837,1.837,0,0,1,.72-1.12c.4.159.641-.4.883-.641.561-1.762-.4-3.2-.883-4.724-.88-1.922,0-4.163,1.042-5.926C153.2,114.827,154.238,112.344,155.519,114.106Z" transform="translate(0 4.98)" fill="#f9dc30" fill-rule="evenodd"/>
    <path id="Path_661" data-name="Path 661" d="M161.738,103.74a2.883,2.883,0,1,1,2.883,2.883A2.871,2.871,0,0,1,161.738,103.74Zm5.365,0a2.482,2.482,0,1,0-2.482,2.482A2.494,2.494,0,0,0,167.1,103.74Z" transform="translate(12.755 4.136)" fill="#cc2229" fill-rule="evenodd"/>
    <path id="Path_662" data-name="Path 662" d="M163.748,105.482h-.322v-3.523h1.123a1.731,1.731,0,0,1,.88.159.777.777,0,0,1,.32.72.841.841,0,0,1-.639.8c.4.079.479.32.561.72a6.794,6.794,0,0,0,.159,1.12h-.32c-.081-.241-.081-.479-.161-.8-.079-.8-.079-.88-.72-.88h-.88v1.683Zm.639-2c.481,0,1.042,0,1.042-.642,0-.72-.641-.641-.961-.641h-.72v1.283Z" transform="translate(12.909 4.236)" fill="#cc2229" fill-rule="evenodd"/>
  </g>
</svg>
