<svg xmlns="http://www.w3.org/2000/svg" width="18.885" height="26.979" viewBox="0 0 18.885 26.979">
  <g id="Group_442" data-name="Group 442" transform="translate(-205.6 -418)">
    <g id="Group_410" data-name="Group 410" transform="translate(205.6 418)">
      <path id="Icon_material-location-on" data-name="Icon material-location-on" d="M16.943,3A9.436,9.436,0,0,0,7.5,12.443c0,7.082,9.443,17.536,9.443,17.536s9.443-10.454,9.443-17.536A9.436,9.436,0,0,0,16.943,3Zm0,12.815a3.372,3.372,0,1,1,3.372-3.372A3.374,3.374,0,0,1,16.943,15.815Z" transform="translate(-7.5 -3)"/>
      <ellipse id="Ellipse_87" data-name="Ellipse 87" cx="4" cy="3.5" rx="4" ry="3.5" transform="translate(5.4 6)"/>
    </g>
    <text id="A" transform="translate(210 433)" fill="#fff" font-size="12" font-family="Montserrat-Bold, Montserrat" font-weight="700"><tspan x="0" y="0">A</tspan></text>
  </g>
</svg>
