<svg xmlns="http://www.w3.org/2000/svg" width="24.097" height="24.097" viewBox="0 0 24.097 24.097">
  <g id="Group_568" data-name="Group 568" transform="translate(0)">
    <g id="relocation_1_" data-name="relocation (1)" transform="translate(0)">
      <path id="Path_729" data-name="Path 729" d="M7.77,232.184a.706.706,0,0,0-.95,0l-6.589,5.99a.706.706,0,1,0,.95,1.045l.231-.21v5.464a.706.706,0,0,0,.706.706H12.472a.706.706,0,0,0,.706-.706v-5.464l.231.21a.706.706,0,1,0,.95-1.045ZM8,243.766H6.589v-2.824H8Zm3.765,0H9.413v-3.53a.706.706,0,0,0-.706-.706H5.883a.706.706,0,0,0-.706.706v3.53H2.824v-6.041l4.471-4.065,4.471,4.065Z" transform="translate(0 -221.081)" fill="#0e3746"/>
      <path id="Path_730" data-name="Path 730" d="M125,332.706a.706.706,0,0,0,.706.706h1.412a.706.706,0,0,0,0-1.412h-1.412A.706.706,0,0,0,125,332.706Z" transform="translate(-119.117 -316.375)" fill="#0e3746"/>
      <path id="Path_731" data-name="Path 731" d="M202.183,7.171a.706.706,0,0,0,1,.047l.231-.21v5.464a.706.706,0,0,0,.706.706h10.354a.706.706,0,0,0,.706-.706V7.008l.231.21a.706.706,0,0,0,.95-1.045L209.77.184a.706.706,0,0,0-.95,0l-6.589,5.99a.706.706,0,0,0-.047,1Zm7.817,4.6h-1.412V8.942H210ZM209.295,1.66l4.471,4.065v6.041h-2.353V8.236a.706.706,0,0,0-.706-.706h-2.824a.706.706,0,0,0-.706.706v3.53h-2.353V5.725Z" transform="translate(-192.493 0)" fill="#0e3746"/>
      <path id="Path_732" data-name="Path 732" d="M327.706,101.412h1.412a.706.706,0,0,0,0-1.412h-1.412a.706.706,0,1,0,0,1.412Z" transform="translate(-311.61 -95.294)" fill="#0e3746"/>
      <path id="Path_733" data-name="Path 733" d="M321.206,314.09l-1.883-1.883a.706.706,0,0,0-1,0l-1.883,1.883a.706.706,0,1,0,1,1l.677-.677v4.414A1.178,1.178,0,0,1,316.942,320h-4.236a.706.706,0,0,0,0,1.412h4.236a2.591,2.591,0,0,0,2.589-2.589v-4.414l.677.677a.706.706,0,0,0,1-1Z" transform="translate(-297.316 -297.317)" fill="#0e3746"/>
      <path id="Path_734" data-name="Path 734" d="M2.089,11.559a.706.706,0,0,0,1,0L4.97,9.677a.706.706,0,1,0-1-1l-.677.677V2.589A1.178,1.178,0,0,1,4.471,1.412H12A.706.706,0,1,0,12,0H4.471A2.591,2.591,0,0,0,1.882,2.589V9.356L1.2,8.678a.706.706,0,0,0-1,1Z" transform="translate(0.001)" fill="#0e3746"/>
    </g>
  </g>
</svg>
